<?xml version="1.0" encoding="UTF-8" standalone="no"?>
<!-- Created with Inkscape (http://www.inkscape.org/) -->

<svg
   xmlns:dc="http://purl.org/dc/elements/1.1/"
   xmlns:cc="http://creativecommons.org/ns#"
   xmlns:rdf="http://www.w3.org/1999/02/22-rdf-syntax-ns#"
   xmlns:svg="http://www.w3.org/2000/svg"
   xmlns="http://www.w3.org/2000/svg"
   xmlns:sodipodi="http://sodipodi.sourceforge.net/DTD/sodipodi-0.dtd"
   xmlns:inkscape="http://www.inkscape.org/namespaces/inkscape"
   width="76.024498mm"
   height="100.04784mm"
   viewBox="0 0 269.37814 354.5002"
   id="svg2"
   version="1.1"
   inkscape:version="0.91 r13725"
   sodipodi:docname="camaroes.svg">
  <defs
     id="defs4">
    <clipPath
       clipPathUnits="userSpaceOnUse"
       id="clipPath4189">
      <rect
         style="fill:#ff7f2a;fill-opacity:1;stroke:#000000;stroke-width:5;stroke-linecap:round;stroke-linejoin:round;stroke-miterlimit:4;stroke-dasharray:none;stroke-dashoffset:0;stroke-opacity:1"
         id="rect4191"
         width="451.9957"
         height="293.50369"
         x="101.74795"
         y="-78.6054" />
    </clipPath>
  </defs>
  <sodipodi:namedview
     id="base"
     pagecolor="#ffffff"
     bordercolor="#666666"
     borderopacity="1.0"
     inkscape:pageopacity="0.0"
     inkscape:pageshadow="2"
     inkscape:zoom="1.2354539"
     inkscape:cx="208.45454"
     inkscape:cy="151.65772"
     inkscape:document-units="px"
     inkscape:current-layer="layer1"
     showgrid="false"
     inkscape:window-width="1366"
     inkscape:window-height="705"
     inkscape:window-x="-8"
     inkscape:window-y="-8"
     inkscape:window-maximized="1"
     fit-margin-top="0"
     fit-margin-left="0"
     fit-margin-right="0"
     fit-margin-bottom="0" />
  <metadata
     id="metadata7">
    <rdf:RDF>
      <cc:Work
         rdf:about="">
        <dc:format>image/svg+xml</dc:format>
        <dc:type
           rdf:resource="http://purl.org/dc/dcmitype/StillImage" />
        <dc:title></dc:title>
      </cc:Work>
    </rdf:RDF>
  </metadata>
  <g
     inkscape:label="Camada 1"
     inkscape:groupmode="layer"
     id="layer1"
     transform="translate(-299.30687,-262.20784)">
    <g
       id="camarao1"
       transform="matrix(-1,0,0,1,854.23177,-35.614442)">
      <path
         inkscape:connector-curvature="0"
         id="path4147"
         d="m 336.07716,524.31954 c -8.25067,-15.40125 -15.95129,-22.00178 -39.05316,-23.65191 17.60142,-12.10098 29.7024,-18.70151 33.55271,-29.15236 3.30027,-8.25067 7.15058,-6.05049 14.8512,-11.55093 7.70062,-5.50045 14.8512,-11.55094 29.7024,-10.45085 14.8512,1.10009 45.65369,0 48.40391,2.20018 2.75022,2.20018 20.35165,7.15058 28.60231,19.25156 8.25067,12.10097 13.75111,45.65369 -13.20106,77.55626 0.55004,-50.05404 -14.30116,-74.256 -39.05316,-78.65635 -24.752,-4.40036 -57.75466,12.65102 -63.80515,54.4544 z"
         style="fill:#ff7f2a;fill-rule:evenodd;stroke:#000000;stroke-width:1px;stroke-linecap:butt;stroke-linejoin:miter;stroke-opacity:1" />
      <path
         inkscape:connector-curvature="0"
         id="path4149"
         d="m 350.92836,486.91652 c -13.20107,-6.05049 -14.8512,-6.60054 -19.8016,-15.40125"
         style="fill:none;fill-rule:evenodd;stroke:#000000;stroke-width:1px;stroke-linecap:butt;stroke-linejoin:miter;stroke-opacity:1" />
      <path
         inkscape:connector-curvature="0"
         id="path4151"
         d="M 370.17991,477.01572 C 356.4288,465.46478 358.07893,457.21412 356.97884,451.71367"
         style="fill:none;fill-rule:evenodd;stroke:#000000;stroke-width:1px;stroke-linecap:butt;stroke-linejoin:miter;stroke-opacity:1" />
      <path
         inkscape:connector-curvature="0"
         id="path4153"
         d="m 381.73084,445.11314 c -3.30026,17.60142 4.40036,23.65191 4.40036,23.65191"
         style="fill:none;fill-rule:evenodd;stroke:#000000;stroke-width:1px;stroke-linecap:butt;stroke-linejoin:miter;stroke-opacity:1" />
      <path
         inkscape:connector-curvature="0"
         id="path4155"
         d="m 402.63253,473.1654 c -1.65013,-17.05137 8.80071,-20.90168 19.25156,-25.85208"
         style="fill:none;fill-rule:evenodd;stroke:#000000;stroke-width:1px;stroke-linecap:butt;stroke-linejoin:miter;stroke-opacity:1" />
      <path
         inkscape:connector-curvature="0"
         id="path4157"
         d="m 454.33671,464.91474 c -12.10098,2.20018 -30.80249,9.9008 -35.20284,13.20106"
         style="fill:none;fill-rule:evenodd;stroke:#000000;stroke-width:1px;stroke-linecap:butt;stroke-linejoin:miter;stroke-opacity:1" />
      <path
         inkscape:connector-curvature="0"
         id="path4159"
         d="m 433.43502,503.96789 c 14.8512,-6.60053 33.00267,2.75023 33.00267,2.75023"
         style="fill:none;fill-rule:evenodd;stroke:#000000;stroke-width:1px;stroke-linecap:butt;stroke-linejoin:miter;stroke-opacity:1" />
      <path
         inkscape:connector-curvature="0"
         id="path4161"
         d="m 430.13476,497.9174 -6.05049,3.30027"
         style="fill:none;fill-rule:evenodd;stroke:#000000;stroke-width:1px;stroke-linecap:butt;stroke-linejoin:miter;stroke-opacity:1" />
      <path
         inkscape:connector-curvature="0"
         id="path4163"
         d="m 424.08427,488.56665 -8.25067,2.75022"
         style="fill:none;fill-rule:evenodd;stroke:#000000;stroke-width:1px;stroke-linecap:butt;stroke-linejoin:miter;stroke-opacity:1" />
      <path
         inkscape:connector-curvature="0"
         id="path4165"
         d="m 414.18347,484.16629 -4.9504,2.75023"
         style="fill:none;fill-rule:evenodd;stroke:#000000;stroke-width:1px;stroke-linecap:butt;stroke-linejoin:miter;stroke-opacity:1" />
      <path
         inkscape:connector-curvature="0"
         id="path4167"
         d="m 407.58293,476.46567 -7.15057,7.15058"
         style="fill:none;fill-rule:evenodd;stroke:#000000;stroke-width:1px;stroke-linecap:butt;stroke-linejoin:miter;stroke-opacity:1" />
      <path
         inkscape:connector-curvature="0"
         id="path4169"
         d="m 398.78222,472.61536 -5.50044,8.25067"
         style="fill:none;fill-rule:evenodd;stroke:#000000;stroke-width:1px;stroke-linecap:butt;stroke-linejoin:miter;stroke-opacity:1" />
      <path
         inkscape:connector-curvature="0"
         id="path4171"
         d="m 387.23129,468.76505 -4.9504,11.00089"
         style="fill:none;fill-rule:evenodd;stroke:#000000;stroke-width:1px;stroke-linecap:butt;stroke-linejoin:miter;stroke-opacity:1" />
      <path
         inkscape:connector-curvature="0"
         id="path4173"
         d="m 376.78044,471.51527 -2.75022,9.35076"
         style="fill:none;fill-rule:evenodd;stroke:#000000;stroke-width:1px;stroke-linecap:butt;stroke-linejoin:miter;stroke-opacity:1" />
      <path
         inkscape:connector-curvature="0"
         id="path4175"
         d="m 364.12942,477.56576 4.40036,7.70062"
         style="fill:none;fill-rule:evenodd;stroke:#000000;stroke-width:1px;stroke-linecap:butt;stroke-linejoin:miter;stroke-opacity:1" />
      <path
         inkscape:connector-curvature="0"
         id="path4177"
         d="m 352.57849,484.71634 4.9504,6.05049"
         style="fill:none;fill-rule:evenodd;stroke:#000000;stroke-width:1px;stroke-linecap:butt;stroke-linejoin:miter;stroke-opacity:1" />
      <circle
         r="1.6501334"
         cy="513.31866"
         cx="452.13654"
         id="path4179"
         style="fill:#ffffff;fill-opacity:1;stroke:#000000;stroke-width:1;stroke-linecap:round;stroke-linejoin:round;stroke-miterlimit:4;stroke-dasharray:none;stroke-dashoffset:0;stroke-opacity:1" />
      <path
         inkscape:connector-curvature="0"
         id="path4181"
         d="m 454.33671,519.91918 c 34.10276,-3.85031 36.30293,18.15147 35.75289,25.30205 -0.55004,7.15057 -12.10098,36.85297 4.40036,41.25333 16.50133,4.40036 17.05137,-13.75111 -14.30116,-22.55182 -31.35253,-8.80071 -23.65191,19.8016 -34.6528,37.40302 -11.00089,17.60142 -40.70329,25.85209 -54.4544,17.05138 -13.75111,-8.80071 -22.00178,-30.25245 5.50044,-26.95218 27.50223,3.30027 12.10098,18.70151 52.80427,24.752 11.55093,-1.65013 12.65102,-1.65013 13.20107,-13.75111 0.55004,-12.10098 -17.60142,-7.70062 -17.60142,-7.70062 0,0 -9.9008,2.20017 -12.10098,14.8512 -2.20018,12.65102 -2.75022,38.50311 -24.752,41.25333 -22.00178,2.75022 -46.75378,0 -52.80427,-11.00089"
         style="fill:none;fill-rule:evenodd;stroke:#000000;stroke-width:1px;stroke-linecap:butt;stroke-linejoin:miter;stroke-opacity:1" />
      <path
         inkscape:connector-curvature="0"
         id="path4185"
         d="m 446.08604,522.6694 c 17.05138,14.30116 17.60143,25.30205 6.60054,36.85298 -11.00089,11.55094 -15.95129,15.40125 -29.7024,17.60142 -13.75111,2.20018 -29.15236,9.9008 -39.6032,18.15147 -10.45085,8.25067 -15.95129,24.20196 -1.65014,30.25245 14.30116,6.05048 24.752,-7.70063 24.20196,-13.75112 -0.55004,-6.05048 -9.9008,-10.45084 -34.10276,15.95129 -16.50133,17.05138 -28.05226,18.15147 -44.00355,4.9504 -15.95129,-13.20106 -2.20018,-35.20284 17.05138,-25.85209"
         style="fill:none;fill-rule:evenodd;stroke:#000000;stroke-width:1px;stroke-linecap:butt;stroke-linejoin:miter;stroke-opacity:1" />
    </g>
    <g
       id="camarao2"
       inkscape:label="#g4327"
       transform="matrix(-1,0,0,1,867.9919,0)">
      <path
         id="path4235"
         d="m 370.33984,263.33398 c -4.16018,0.0172 -8.46587,0.53798 -12.89843,1.69727 -28.36839,7.41942 -61.97463,27.49473 -57.17383,89.46875 4.50069,0 8.4451,1.1972 11.87109,3.20508 1.16894,13.77349 8.47133,27.05932 17.6836,35.75976 0.0266,1.85522 -0.0736,3.58637 -0.3125,5.11524 0.89372,-1.11716 1.8053,-2.08702 2.72461,-2.97656 3.87871,3.21501 8.00991,5.61466 12.11328,6.90429 -0.0823,-4.68889 -0.5358,-8.97292 -1.35938,-12.89062 4.92137,-1.09736 9.96319,-0.44995 14.89063,0.66992 -1.30931,-22.25827 4.79962,-49.75282 23.5664,-54.11719 18.76678,-4.36436 59.79307,-10.91162 75.06836,35.78711 -0.43643,-17.02104 4.36348,-17.02124 0.43555,-30.55078 -3.92793,-13.52953 -20.94898,-46.69811 -34.47852,-55.86328 -11.41555,-7.73311 -29.66585,-22.30177 -52.13086,-22.20899 z"
         style="fill:#ff7f2a;fill-rule:evenodd;stroke:#000000;stroke-width:1px;stroke-linecap:butt;stroke-linejoin:miter;stroke-opacity:1"
         inkscape:connector-curvature="0" />
      <path
         inkscape:connector-curvature="0"
         id="path4240"
         d="m 299.83204,353.19056 c 17.02103,-7.85586 51.06309,0 61.10114,4.36436"
         style="fill:none;fill-rule:evenodd;stroke:#000000;stroke-width:1px;stroke-linecap:butt;stroke-linejoin:miter;stroke-opacity:1" />
      <path
         inkscape:connector-curvature="0"
         id="path4242"
         d="m 302.01422,320.02136 c 28.36839,-3.92793 64.1562,6.11012 73.75781,17.45747"
         style="fill:none;fill-rule:evenodd;stroke:#000000;stroke-width:1px;stroke-linecap:butt;stroke-linejoin:miter;stroke-opacity:1" />
      <path
         inkscape:connector-curvature="0"
         id="path4244"
         d="m 333.8741,264.15746 c 0.43644,17.45747 16.14816,17.02104 30.98701,30.11414 14.83885,13.0931 22.25827,16.14816 22.69471,41.46149"
         style="fill:none;fill-rule:evenodd;stroke:#000000;stroke-width:1px;stroke-linecap:butt;stroke-linejoin:miter;stroke-opacity:1" />
      <path
         inkscape:connector-curvature="0"
         id="path4246"
         d="m 405.93854,332.83515 c 12.04565,-16.4624 -11.64414,-51.79631 -30.91718,-70.26632"
         style="fill:none;fill-rule:evenodd;stroke:#000000;stroke-width:1px;stroke-linecap:butt;stroke-linejoin:miter;stroke-opacity:1" />
      <path
         inkscape:connector-curvature="0"
         id="path4248"
         d="m 432.43897,285.45558 c 8.03044,22.88674 15.65935,37.74304 -2.40913,53.00087"
         style="fill:none;fill-rule:evenodd;stroke:#000000;stroke-width:1px;stroke-linecap:butt;stroke-linejoin:miter;stroke-opacity:1" />
      <circle
         r="1.6501334"
         cy="339.25952"
         cx="452.51508"
         id="path4179-9"
         style="fill:#ffffff;fill-opacity:1;stroke:#000000;stroke-width:1;stroke-linecap:round;stroke-linejoin:round;stroke-miterlimit:4;stroke-dasharray:none;stroke-dashoffset:0;stroke-opacity:1" />
      <path
         inkscape:connector-curvature="0"
         id="path4284"
         d="m 360.96809,362.14624 c 2.81066,2.81065 6.02283,5.6213 9.23501,5.6213"
         style="fill:none;fill-rule:evenodd;stroke:#000000;stroke-width:1px;stroke-linecap:butt;stroke-linejoin:miter;stroke-opacity:1" />
      <path
         inkscape:connector-curvature="0"
         id="path4286"
         d="m 368.19549,345.68384 c 1.60608,3.6137 2.81065,4.81827 5.21978,4.81827"
         style="fill:none;fill-rule:evenodd;stroke:#000000;stroke-width:1px;stroke-linecap:butt;stroke-linejoin:miter;stroke-opacity:1" />
      <path
         inkscape:connector-curvature="0"
         id="path4288"
         d="m 379.4381,336.04732 0.80304,4.41674"
         style="fill:none;fill-rule:evenodd;stroke:#000000;stroke-width:1px;stroke-linecap:butt;stroke-linejoin:miter;stroke-opacity:1" />
      <path
         inkscape:connector-curvature="0"
         id="path4290"
         d="m 392.68832,337.25189 -3.6137,6.42435"
         style="fill:none;fill-rule:evenodd;stroke:#000000;stroke-width:1px;stroke-linecap:butt;stroke-linejoin:miter;stroke-opacity:1" />
      <path
         inkscape:connector-curvature="0"
         id="path4292"
         d="m 407.1431,333.23667 -7.22739,9.235"
         style="fill:none;fill-rule:evenodd;stroke:#000000;stroke-width:1px;stroke-linecap:butt;stroke-linejoin:miter;stroke-opacity:1" />
      <path
         inkscape:connector-curvature="0"
         id="path4294"
         d="m 418.38571,334.44123 c 1.20457,4.01522 0.40152,5.21979 -5.21978,10.43957"
         style="fill:none;fill-rule:evenodd;stroke:#000000;stroke-width:1px;stroke-linecap:butt;stroke-linejoin:miter;stroke-opacity:1" />
      <path
         inkscape:connector-curvature="0"
         id="path4296"
         d="m 420.79484,345.68384 c 6.42435,-4.01521 6.42435,-6.02282 5.21978,-7.22739"
         style="fill:none;fill-rule:evenodd;stroke:#000000;stroke-width:1px;stroke-linecap:butt;stroke-linejoin:miter;stroke-opacity:1" />
      <path
         inkscape:connector-curvature="0"
         id="path4298"
         d="m 431.23441,354.1158 c 6.42435,-7.62891 2.40913,-8.83348 0.40152,-13.25022"
         style="fill:none;fill-rule:evenodd;stroke:#000000;stroke-width:1px;stroke-linecap:butt;stroke-linejoin:miter;stroke-opacity:1" />
      <path
         inkscape:connector-curvature="0"
         id="path4300"
         d="m 446.09071,352.50972 -2.81065,2.40913"
         style="fill:none;fill-rule:evenodd;stroke:#000000;stroke-width:1px;stroke-linecap:butt;stroke-linejoin:miter;stroke-opacity:1" />
      <path
         inkscape:connector-curvature="0"
         id="path4302"
         d="m 456.9318,342.47167 c 9.63653,-9.235 19.27305,-10.03804 26.09892,-6.02283 6.82587,4.01522 12.04565,8.03044 10.03804,22.0837 -2.0076,14.05327 14.85631,17.66696 18.47001,17.66696 3.61369,0 6.82587,-2.81065 8.83348,-8.43196 2.00761,-5.6213 -4.81826,-9.235 -5.21979,0 -0.40152,9.235 -2.00761,27.70501 -13.65174,25.6974 -11.64413,-2.00761 -11.24261,-2.40913 -13.25022,0"
         style="fill:none;fill-rule:evenodd;stroke:#000000;stroke-width:1px;stroke-linecap:butt;stroke-linejoin:miter;stroke-opacity:1" />
      <path
         inkscape:connector-curvature="0"
         id="path4304"
         d="m 450.10593,347.28993 c 21.68218,1.20457 41.35675,20.47761 12.04566,26.50044 -29.31109,6.02283 -34.9324,26.50044 -5.21979,28.10653 29.71262,1.60608 14.85631,-14.05327 12.8487,-14.05327 -2.00761,0 2.00761,8.03044 12.04565,3.6137 10.03805,-4.41674 16.4624,-15.25783 16.4624,-22.48522 0,-7.22739 -0.40152,-7.22739 7.22739,-10.03805 7.62891,-2.81065 9.235,-2.81065 13.65174,-7.22739 4.41674,-4.41674 19.67457,-9.63652 32.92479,-0.80304 13.25022,8.83348 16.46239,17.66696 16.06087,27.705"
         style="fill:none;fill-rule:evenodd;stroke:#000000;stroke-width:1px;stroke-linecap:butt;stroke-linejoin:miter;stroke-opacity:1" />
    </g>
  </g>
</svg>
