<?xml version="1.0" encoding="UTF-8" standalone="no"?>
<!-- Created with Inkscape (http://www.inkscape.org/) -->

<svg
   xmlns:dc="http://purl.org/dc/elements/1.1/"
   xmlns:cc="http://creativecommons.org/ns#"
   xmlns:rdf="http://www.w3.org/1999/02/22-rdf-syntax-ns#"
   xmlns:svg="http://www.w3.org/2000/svg"
   xmlns="http://www.w3.org/2000/svg"
   xmlns:sodipodi="http://sodipodi.sourceforge.net/DTD/sodipodi-0.dtd"
   xmlns:inkscape="http://www.inkscape.org/namespaces/inkscape"
   width="210mm"
   height="297mm"
   viewBox="0 0 744.09448819 1052.3622047"
   id="svg2"
   version="1.1"
   inkscape:version="0.91 r13725"
   sodipodi:docname="lula.svg">
  <defs
     id="defs4">
    <clipPath
       clipPathUnits="userSpaceOnUse"
       id="clipPath4149">
      <rect
         style="fill:#808000;fill-opacity:1;stroke:none;stroke-width:5;stroke-linecap:round;stroke-linejoin:round;stroke-miterlimit:4;stroke-dasharray:none;stroke-dashoffset:0;stroke-opacity:1"
         id="rect4151"
         width="2341.5073"
         height="1095.7472"
         x="-1324.0278"
         y="-89.041138" />
    </clipPath>
    <clipPath
       clipPathUnits="userSpaceOnUse"
       id="clipPath4220">
      <rect
         style="fill:#0000ff;fill-opacity:1;stroke:none;stroke-width:5;stroke-linecap:round;stroke-linejoin:round;stroke-miterlimit:4;stroke-dasharray:none;stroke-dashoffset:0;stroke-opacity:1"
         id="rect4222"
         width="919.83679"
         height="691.36121"
         x="52.030125"
         y="432.96988"
         transform="matrix(0,1,-1,0,0,0)" />
    </clipPath>
  </defs>
  <sodipodi:namedview
     id="base"
     pagecolor="#ffffff"
     bordercolor="#666666"
     borderopacity="1.0"
     inkscape:pageopacity="0.0"
     inkscape:pageshadow="2"
     inkscape:zoom="0.19354117"
     inkscape:cx="515.73549"
     inkscape:cy="1376.745"
     inkscape:document-units="px"
     inkscape:current-layer="layer1"
     showgrid="false"
     inkscape:window-width="1366"
     inkscape:window-height="705"
     inkscape:window-x="-8"
     inkscape:window-y="-8"
     inkscape:window-maximized="1"
     showguides="false" />
  <metadata
     id="metadata7">
    <rdf:RDF>
      <cc:Work
         rdf:about="">
        <dc:format>image/svg+xml</dc:format>
        <dc:type
           rdf:resource="http://purl.org/dc/dcmitype/StillImage" />
        <dc:title></dc:title>
      </cc:Work>
    </rdf:RDF>
  </metadata>
  <g
     inkscape:label="Camada 1"
     inkscape:groupmode="layer"
     id="layer1">
    <rect
       style="fill:#000080;fill-opacity:1;stroke:#000000;stroke-width:5;stroke-linecap:round;stroke-linejoin:round;stroke-miterlimit:4;stroke-dasharray:none;stroke-dashoffset:0;stroke-opacity:1"
       id="rect4175"
       width="2722.6963"
       height="1699.9342"
       x="-368.39716"
       y="-1432.7576" />
    <g
       id="g4224"
       transform="translate(-181.60765,129.37763)">
      <path
         sodipodi:nodetypes="csc"
         inkscape:connector-curvature="0"
         id="path4159"
         d="m 158.9789,-1341.6149 c -49.1177,11.4956 -88.8648,54.6006 -89.8749,103.4606 -1.0095,48.8297 24.4801,138.9561 70.4626,174.4881"
         style="fill:#800000;fill-rule:evenodd;stroke:#000000;stroke-width:5;stroke-linecap:butt;stroke-linejoin:miter;stroke-miterlimit:4;stroke-dasharray:none;stroke-opacity:1" />
      <path
         inkscape:connector-curvature="0"
         id="path4161"
         d="m 303.19675,-1325.9391 c 35.53192,-8.3604 70.0188,30.3067 83.60453,44.9374 13.58574,14.6308 36.57699,89.8749 16.72091,116.0013"
         style="fill:#782121;fill-rule:evenodd;stroke:#000000;stroke-width:5;stroke-linecap:butt;stroke-linejoin:miter;stroke-miterlimit:4;stroke-dasharray:none;stroke-opacity:1" />
      <path
         inkscape:connector-curvature="0"
         id="path4180"
         d="m 160.1196,-966.45863 c 4.1317,-26.85625 53.71246,-80.56877 53.71246,-80.56877 l 130.14951,6.7141 62.49242,35.6362 -12.39519,28.40561 -149.25876,51.64663 z"
         style="fill:#ff0000;fill-rule:evenodd;stroke:none;stroke-width:1px;stroke-linecap:butt;stroke-linejoin:miter;stroke-opacity:1" />
      <path
         sodipodi:nodetypes="cssssssssssc"
         inkscape:connector-curvature="0"
         id="path4155"
         d="m 293.79123,-993.61105 c 0,0 -73.52363,10.16383 -100.32543,14.63079 -25.0814,4.18023 -46.0161,12.15423 -53.2979,31.3517 -11.4956,30.30665 -14.6309,43.89239 -41.8023,40.75722 -13.0082,-1.50095 -26.1264,-19.85608 -9.4055,-58.52318 16.7209,-38.66708 61.6584,-80.46938 51.2078,-220.50698 -10.4506,-140.0376 20.9011,-168.2541 53.2979,-178.7047 32.39675,-10.4506 107.64083,14.6308 154.66838,85.6947 60.25952,91.0588 86.73971,226.7773 87.78477,260.2191 1.04506,33.4418 -7.3154,43.89236 -16.72091,42.84731 -9.40551,-1.04506 -33.44181,-25.08131 -58.52317,-24.0363 -25.08137,1.04505 -47.02756,2.09011 -66.88364,6.27034 z"
         style="fill:#c83737;fill-rule:evenodd;stroke:#000000;stroke-width:5;stroke-linecap:butt;stroke-linejoin:miter;stroke-miterlimit:4;stroke-dasharray:none;stroke-opacity:1" />
      <path
         sodipodi:nodetypes="cccsccsscssccscscscssccscscscsscsscc"
         inkscape:connector-curvature="0"
         id="path4163"
         d="m 160.024,-967.48463 c -2.0901,68.97374 51.20775,120.18152 86.73968,131.67714 -2.09011,250.81362 -16.72091,559.10536 -147.35298,561.19547 12.5407,54.34295 43.8924,94.05511 149.44309,22.99125 105.55073,-71.06386 134.81232,-368.90503 43.89239,-478.63599 110.77601,94.05511 260.21912,413.84247 77.3342,497.44701 95.10016,14.63079 197.72789,34.44203 168.25413,-104.50567 -14.6308,-68.97375 -26.22733,-75.274 -47.02755,-132.72221 -21.94619,-60.61329 -28.21653,-157.80357 -95.10017,-215.28169 71.06386,72.10892 86.37042,134.82161 136.90244,196.47067 52.25284,63.74846 131.69165,118.61441 165.11896,120.18152 31.3347,1.469 55.38801,-77.3342 60.61329,-89.87488 -59.56823,50.16273 -219.46191,-164.0739 -313.51702,-267.53452 63.74846,45.9825 125.40681,121.22658 169.29919,145.26289 43.89238,24.0363 150.48817,63.74846 172.43436,-34.48688 -64.79352,30.30665 -116.0013,-6.27034 -150.48817,-29.26158 -34.48687,-22.99125 -105.55073,-65.83858 -141.08266,-99.28039 73.15398,16.7209 180.79482,76.28914 206.92124,83.60453 26.12642,7.3154 76.28914,-1.04505 114.95624,-61.65834 -71.06386,15.67585 -129.58704,4.18022 -167.20908,-4.18023 -37.62204,-8.36045 -95.10016,-25.08136 -108.6859,-37.62204 -13.58574,-12.54068 -17.76596,-11.49563 -24.0363,-10.45057 68.97374,-26.12642 250.81361,-85.69465 283.21037,16.72091 43.89238,-55.38801 24.0363,-103.46062 -19.85608,-132.72221 -43.89238,-29.26159 -170.34425,-48.07261 -263.35429,52.25284 82.55948,-14.63079 150.48816,-45.9825 196.47066,-103.46062 45.9825,-57.47812 57.47812,-71.06388 49.11767,-112.86608 -53.2979,58.52313 -74.19903,68.9737 -130.63209,93.01001 -56.43307,24.0363 -88.82983,19.85607 -111.82107,19.85607 40.75721,-15.67585 63.74846,-12.54068 100.32544,-70.01878 36.57699,-57.4781 30.30665,-82.5595 57.47812,-98.2353 27.17148,-15.6759 54.34295,-31.3518 73.15397,-20.9012 -78.37925,-34.4869 -140.0376,-29.2616 -189.15527,8.3605 -49.11766,37.622 -88.82982,124.36172 -105.55073,187.06512 -16.7209,62.70341 -68.97374,96.14522 -95.10016,95.10017 32.39676,-31.35171 45.9825,-80.46937 37.62204,-147.353"
         style="fill:#ff0000;fill-rule:evenodd;stroke:#000000;stroke-width:5;stroke-linecap:butt;stroke-linejoin:miter;stroke-miterlimit:4;stroke-dasharray:none;stroke-opacity:1" />
      <path
         inkscape:connector-curvature="0"
         id="path4167"
         d="m 313.64731,-910.00651 c -22.99125,41.80226 -36.57698,41.80226 -45.98249,7.31539"
         style="fill:none;fill-rule:evenodd;stroke:#000000;stroke-width:5;stroke-linecap:butt;stroke-linejoin:miter;stroke-miterlimit:4;stroke-dasharray:none;stroke-opacity:1" />
      <ellipse
         transform="matrix(0,-1,1,0,0,0)"
         ry="10.450567"
         rx="14.630795"
         cy="239.44827"
         cx="950.76373"
         id="path4169"
         style="fill:#0000ff;fill-opacity:1;stroke:#000000;stroke-width:5;stroke-linecap:round;stroke-linejoin:round;stroke-miterlimit:4;stroke-dasharray:none;stroke-dashoffset:0;stroke-opacity:1" />
      <ellipse
         transform="matrix(0,-1,1,0,0,0)"
         ry="8.8829823"
         rx="13.585737"
         cy="296.4039"
         cx="950.76373"
         id="path4171"
         style="fill:#0000ff;fill-opacity:1;stroke:#000000;stroke-width:5;stroke-linecap:round;stroke-linejoin:round;stroke-miterlimit:4;stroke-dasharray:none;stroke-dashoffset:0;stroke-opacity:1" />
    </g>
    <g
       transform="matrix(0,-1,1,0,-282.18606,-271.40658)"
       id="g4192">
      <path
         style="fill:#ffffff;fill-rule:evenodd;stroke:#000000;stroke-width:1px;stroke-linecap:butt;stroke-linejoin:miter;stroke-opacity:1"
         d="m 1085.8139,-1049.2469 c -11.4956,-49.1177 -54.6006,-88.8648 -103.46057,-89.8749 -48.82976,-1.0095 -138.95618,24.4801 -174.48811,70.4626"
         id="path4194"
         inkscape:connector-curvature="0"
         sodipodi:nodetypes="csc" />
      <path
         style="fill:#ffffff;fill-rule:evenodd;stroke:#000000;stroke-width:1px;stroke-linecap:butt;stroke-linejoin:miter;stroke-opacity:1"
         d="m 1070.1381,-905.02905 c 8.3604,35.53192 -30.3067,70.0188 -44.9374,83.60453 -14.6308,13.58574 -89.87492,36.57699 -116.00134,16.72091"
         id="path4196"
         inkscape:connector-curvature="0" />
      <path
         style="fill:#800080;fill-rule:evenodd;stroke:none;stroke-width:1px;stroke-linecap:butt;stroke-linejoin:miter;stroke-opacity:1"
         d="m 710.65763,-1048.1062 c 26.85625,4.1317 80.56874,53.71246 80.56874,53.71246 l -6.71406,130.14951 -35.63618,62.49242 -28.40564,-12.39519 -51.64663,-149.25876 z"
         id="path4198"
         inkscape:connector-curvature="0" />
      <path
         style="fill:#ffffff;fill-rule:evenodd;stroke:#000000;stroke-width:1px;stroke-linecap:butt;stroke-linejoin:miter;stroke-opacity:1"
         d="m 737.81005,-914.43457 c 0,0 -10.16383,-73.52363 -14.63079,-100.32543 -4.18023,-25.0814 -12.15423,-46.0161 -31.3517,-53.2979 -30.30665,-11.4956 -43.89239,-14.6309 -40.75722,-41.8023 1.50095,-13.0082 19.85608,-26.1264 58.52318,-9.4055 38.6671,16.7209 80.46937,61.6584 220.50697,51.2078 140.03761,-10.4506 168.25411,20.9011 178.70471,53.2979 10.4506,32.39675 -14.6308,107.64083 -85.6947,154.66838 -91.05885,60.25952 -226.77727,86.73971 -260.21909,87.78477 -33.44181,1.04506 -43.89237,-7.3154 -42.84732,-16.72091 1.04506,-9.40551 25.08136,-33.44181 24.0363,-58.52317 -1.04505,-25.08137 -2.09011,-47.02756 -6.27034,-66.88364 z"
         id="path4200"
         inkscape:connector-curvature="0"
         sodipodi:nodetypes="cssssssssssc" />
      <path
         style="fill:#800080;fill-rule:evenodd;stroke:#000000;stroke-width:1px;stroke-linecap:butt;stroke-linejoin:miter;stroke-opacity:1"
         d="m 711.68363,-1048.2018 c -68.97374,-2.0901 -120.18152,51.20775 -131.67714,86.73968 -250.81362,-2.09011 -559.105355,-16.72091 -561.195469,-147.35298 -54.34295,12.5407 -94.055106,43.8924 -22.9912479,149.44309 71.0638579,105.55073 368.9050269,134.81232 478.6359869,43.89239 -94.05511,110.77601 -413.84247,260.21912 -497.447008,77.3342 -14.630794,95.10016 -34.442036,197.72789 104.505673,168.25413 68.973745,-14.6308 75.273995,-26.22733 132.722205,-47.02755 60.61329,-21.94619 157.80357,-28.21653 215.28169,-95.10017 -72.10892,71.06386 -134.82161,86.37042 -196.47067,136.90244 -63.74846,52.25284 -118.61441,131.69165 -120.18152,165.11896 -1.469,31.3347 77.3342,55.38801 89.87488,60.61329 -50.16273,-59.56823 164.0739,-219.46191 267.53452,-313.51702 -45.9825,63.74846 -121.22658,125.40681 -145.26289,169.29919 -24.0363,43.89238 -63.74846,150.48817 34.48688,172.43436 -30.30665,-64.79352 6.27034,-116.0013 29.26158,-150.48817 22.99125,-34.48687 65.83858,-105.55073 99.28039,-141.08266 -16.7209,73.15398 -76.28914,180.79482 -83.60453,206.92124 -7.3154,26.12642 1.04505,76.28914 61.65834,114.95624 -15.67585,-71.06386 -4.18022,-129.58704 4.18023,-167.20908 8.36045,-37.62204 25.08136,-95.10016 37.62204,-108.6859 12.54068,-13.58574 11.49563,-17.76596 10.45057,-24.0363 26.12642,68.97374 85.69465,250.81361 -16.72091,283.21037 55.38801,43.89238 103.46062,24.0363 132.72221,-19.85608 29.26159,-43.89238 48.07261,-170.34425 -52.25284,-263.35429 14.63079,82.55948 45.9825,150.48816 103.46062,196.47066 57.47812,45.9825 71.06385,57.47812 112.86612,49.11767 -58.52317,-53.2979 -68.97374,-74.19903 -93.01005,-130.63209 -24.0363,-56.43307 -19.85607,-88.82983 -19.85607,-111.82107 15.67585,40.75721 12.54068,63.74846 70.0188,100.32544 57.47812,36.57699 82.55948,30.30665 98.23533,57.47812 15.67585,27.17148 31.3517,54.34295 20.90113,73.15397 34.48688,-78.37925 29.26159,-140.0376 -8.36045,-189.15527 -37.62204,-49.11766 -124.36175,-88.82982 -187.06515,-105.55073 -62.70341,-16.7209 -96.14522,-68.97374 -95.10017,-95.10016 31.35171,32.39676 80.46937,45.9825 147.353,37.62204"
         id="path4202"
         inkscape:connector-curvature="0"
         sodipodi:nodetypes="cccsccsscssccscscscssccscscscsscsscc" />
      <path
         style="fill:none;fill-rule:evenodd;stroke:#000000;stroke-width:1px;stroke-linecap:butt;stroke-linejoin:miter;stroke-opacity:1"
         d="m 654.20551,-894.57849 c -41.80226,-22.99125 -41.80226,-36.57698 -7.31539,-45.98249"
         id="path4204"
         inkscape:connector-curvature="0" />
      <ellipse
         style="fill:#ffffff;fill-opacity:1;stroke:#000000;stroke-width:5;stroke-linecap:round;stroke-linejoin:round;stroke-miterlimit:4;stroke-dasharray:none;stroke-dashoffset:0;stroke-opacity:1"
         id="ellipse4206"
         cx="694.96271"
         cy="-968.77753"
         rx="14.630795"
         ry="10.450567" />
      <ellipse
         style="fill:#ffffff;fill-opacity:1;stroke:#000000;stroke-width:5;stroke-linecap:round;stroke-linejoin:round;stroke-miterlimit:4;stroke-dasharray:none;stroke-dashoffset:0;stroke-opacity:1"
         id="ellipse4208"
         cx="694.96271"
         cy="-911.8219"
         rx="13.585737"
         ry="8.8829823" />
    </g>
    <g
       id="g4300"
       transform="translate(15.500578,175.67322)">
      <path
         inkscape:connector-curvature="0"
         id="path4272"
         d="m 1667.2009,-607.72906 124.4179,-135.08238 85.3152,-12.44179 30.2158,-8.887 -35.548,-88.86998 -156.4111,7.10959 -229.2846,126.19538 z"
         style="fill:#ff0000;fill-rule:evenodd;stroke:none;stroke-width:1px;stroke-linecap:butt;stroke-linejoin:miter;stroke-opacity:1" />
      <path
         style="fill:#800000;fill-rule:evenodd;stroke:#000000;stroke-width:5;stroke-linecap:butt;stroke-linejoin:miter;stroke-miterlimit:4;stroke-dasharray:none;stroke-opacity:1"
         d="m 1215.3076,-1276.3362 c -49.1177,11.4956 -88.8648,54.6006 -89.8749,103.4606 -1.0095,48.8297 24.4801,138.9561 70.4626,174.48814"
         id="path4236"
         inkscape:connector-curvature="0"
         sodipodi:nodetypes="csc" />
      <path
         style="fill:#782121;fill-rule:evenodd;stroke:#000000;stroke-width:5;stroke-linecap:butt;stroke-linejoin:miter;stroke-miterlimit:4;stroke-dasharray:none;stroke-opacity:1"
         d="m 1359.5255,-1260.6604 c 35.5319,-8.3604 70.0188,30.3067 83.6045,44.9374 13.5857,14.6308 36.577,89.8749 16.7209,116.0013"
         id="path4238"
         inkscape:connector-curvature="0" />
      <path
         style="fill:#ff0000;fill-rule:evenodd;stroke:none;stroke-width:1px;stroke-linecap:butt;stroke-linejoin:miter;stroke-opacity:1"
         d="m 1216.4483,-901.17989 c 4.1317,-26.85625 53.7125,-80.56877 53.7125,-80.56877 l 130.1495,6.7141 62.4924,35.6362 -12.3952,28.40561 -149.2588,51.64663 z"
         id="path4240"
         inkscape:connector-curvature="0" />
      <path
         inkscape:connector-curvature="0"
         id="path4264"
         d="m 1949.262,-389.10882 c 54.6011,23.66051 91.0019,20.02043 94.642,-10.92023 3.6401,-30.94067 -67.3415,-165.62357 -134.6829,-247.52533 -67.3415,-81.90177 -129.2228,-152.88329 -242.0652,-141.96306"
         style="fill:#ff0000;fill-rule:evenodd;stroke:#000000;stroke-width:5;stroke-linecap:butt;stroke-linejoin:miter;stroke-miterlimit:4;stroke-dasharray:none;stroke-opacity:1" />
      <path
         inkscape:connector-curvature="0"
         id="path4270"
         d="m 2216.8077,-840.47853 c 36.4008,67.34144 23.6605,116.4825 -54.6012,120.12258 -78.2616,3.64008 -314.8667,-10.92023 -351.2675,-29.12063"
         style="fill:#ff0000;fill-rule:evenodd;stroke:#000000;stroke-width:5;stroke-linecap:butt;stroke-linejoin:miter;stroke-miterlimit:4;stroke-dasharray:none;stroke-opacity:1" />
      <path
         sodipodi:nodetypes="cssc"
         inkscape:connector-curvature="0"
         id="path4262"
         d="m 1885.5606,-349.06796 c 41.8609,-3.64008 50.9611,-18.20039 67.3414,-40.04086 16.3804,-21.84047 29.1207,-89.18192 -27.3006,-187.46403 -56.4212,-98.28212 -203.8443,-189.28408 -265.7257,-212.94459"
         style="fill:#ff0000;fill-rule:evenodd;stroke:#000000;stroke-width:5;stroke-linecap:butt;stroke-linejoin:miter;stroke-miterlimit:4;stroke-dasharray:none;stroke-opacity:1" />
      <path
         inkscape:connector-curvature="0"
         id="path4268"
         d="m 2167.6667,-898.71979 c 56.4212,41.8609 60.0612,65.52141 38.2208,89.18192 -21.8405,23.66051 -123.7627,54.60118 -172.9037,52.78114 -49.1411,-1.82004 -209.3045,-20.02043 -243.8853,-12.74028"
         style="fill:#ff0000;fill-rule:evenodd;stroke:#000000;stroke-width:5;stroke-linecap:butt;stroke-linejoin:miter;stroke-miterlimit:4;stroke-dasharray:none;stroke-opacity:1" />
      <path
         inkscape:connector-curvature="0"
         id="path4260"
         d="m 1827.3193,-334.50764 c 54.6012,-1.82004 74.6216,-9.1002 72.8016,-61.88134 -1.82,-52.78113 -131.0428,-307.58662 -300.3065,-364.00783"
         style="fill:#ff0000;fill-rule:evenodd;stroke:#000000;stroke-width:5;stroke-linecap:butt;stroke-linejoin:miter;stroke-miterlimit:4;stroke-dasharray:none;stroke-opacity:1" />
      <path
         style="fill:#c83737;fill-rule:evenodd;stroke:#000000;stroke-width:5;stroke-linecap:butt;stroke-linejoin:miter;stroke-miterlimit:4;stroke-dasharray:none;stroke-opacity:1"
         d="m 1350.1199,-928.33231 c 0,0 -73.5236,10.16383 -100.3254,14.63079 -25.0814,4.18023 -46.0161,12.15423 -53.2979,31.3517 -11.4956,30.30665 -14.6309,43.89239 -41.8023,40.75722 -13.0082,-1.50095 -26.1264,-19.85608 -9.4055,-58.52318 16.7209,-38.66708 61.6584,-80.46938 51.2078,-220.50702 -10.4506,-140.0376 20.9011,-168.2541 53.2979,-178.7047 32.3968,-10.4506 107.6408,14.6308 154.6684,85.6947 60.2595,91.0588 86.7397,226.77734 87.7848,260.21914 1.045,33.4418 -7.3154,43.89236 -16.721,42.84731 -9.4055,-1.04506 -33.4418,-25.08131 -58.5231,-24.0363 -25.0814,1.04505 -47.0276,2.09011 -66.8837,6.27034 z"
         id="path4242"
         inkscape:connector-curvature="0"
         sodipodi:nodetypes="cssssssssssc" />
      <path
         sodipodi:nodetypes="cssc"
         inkscape:connector-curvature="0"
         id="path4266"
         d="m 2089.405,-976.98147 c 65.5214,38.22082 87.3619,52.78113 74.6216,96.46207 -12.7403,43.68094 -74.6216,63.70137 -147.4232,72.80157 -72.8016,9.1002 -152.0013,1.73476 -208.4225,9.01492"
         style="fill:#ff0000;fill-rule:evenodd;stroke:#000000;stroke-width:5;stroke-linecap:butt;stroke-linejoin:miter;stroke-miterlimit:4;stroke-dasharray:none;stroke-opacity:1" />
      <path
         style="fill:#ff0000;fill-rule:evenodd;stroke:#000000;stroke-width:5;stroke-linecap:butt;stroke-linejoin:miter;stroke-miterlimit:4;stroke-dasharray:none;stroke-opacity:1"
         d="m 1455.6707,-922.06197 c 8.3604,66.88363 5.6949,121.46141 -26.7019,152.81312 172.6657,-38.46898 212.7065,-65.76957 301.8885,-96.71023 89.1819,-30.94067 239.022,-45.4157 287.6514,-69.03357 39.7424,-12.95347 76.3564,-29.24855 14.4751,-82.02965 63.7013,34.58071 105.5622,92.82196 80.0817,120.12255 -25.4806,27.30059 -91.002,32.76071 -194.7442,52.78114 -103.7422,20.02043 -160.1635,34.58074 -180.1839,30.94066 -20.0204,-3.64008 -32.7607,-25.48055 -32.7607,-25.48055 l -156.7211,87.37369 0.1977,54.58937 c 80.0818,21.84047 189.2841,83.7218 254.8055,183.82396 65.5214,100.10215 41.8609,158.3434 27.3006,178.36384 -14.5603,20.02043 -30.9407,23.6605 -92.822,23.6605 47.321,-27.30058 16.3804,-87.36188 -21.8405,-136.50293 -38.2208,-49.14106 -125.5827,-132.86286 -192.9241,-165.62357 -67.3415,-32.7607 -182.0039,-109.20235 -234.8407,-137.53468 -35.5319,-11.49562 -74.2695,-82.72383 -72.1794,-151.69757 9.0339,-29.06587 42.4055,-62.61626 102.1291,-65.54298 132.4062,-6.48848 137.1889,45.6869 137.1889,45.6869"
         id="path4244"
         inkscape:connector-curvature="0"
         sodipodi:nodetypes="cccccssscccsscssccsc" />
      <path
         style="fill:none;fill-rule:evenodd;stroke:#000000;stroke-width:5;stroke-linecap:butt;stroke-linejoin:miter;stroke-miterlimit:4;stroke-dasharray:none;stroke-opacity:1"
         d="m 1369.976,-844.72777 c -22.9912,41.80226 -36.577,41.80226 -45.9825,7.31539"
         id="path4246"
         inkscape:connector-curvature="0" />
      <ellipse
         style="fill:#0000ff;fill-opacity:1;stroke:#000000;stroke-width:5;stroke-linecap:round;stroke-linejoin:round;stroke-miterlimit:4;stroke-dasharray:none;stroke-dashoffset:0;stroke-opacity:1"
         id="ellipse4248"
         cx="885.48499"
         cy="1295.777"
         rx="14.630795"
         ry="10.450567"
         transform="matrix(0,-1,1,0,0,0)" />
      <ellipse
         style="fill:#0000ff;fill-opacity:1;stroke:#000000;stroke-width:5;stroke-linecap:round;stroke-linejoin:round;stroke-miterlimit:4;stroke-dasharray:none;stroke-dashoffset:0;stroke-opacity:1"
         id="ellipse4250"
         cx="885.48499"
         cy="1352.7325"
         rx="13.585737"
         ry="8.8829823"
         transform="matrix(0,-1,1,0,0,0)" />
      <path
         inkscape:connector-curvature="0"
         id="path4274"
         d="m 1564.1117,-703.70864 -40.8802,10.66439 -12.4418,-71.09598 195.514,-81.76039 0,24.8836 -119.0858,65.76379 z"
         style="fill:#ff0000;fill-rule:evenodd;stroke:none;stroke-width:1px;stroke-linecap:butt;stroke-linejoin:miter;stroke-opacity:1" />
      <ellipse
         ry="15.107897"
         rx="13.330498"
         cy="-686.82336"
         cx="1920.4803"
         id="path4276"
         style="fill:#ffffff;fill-opacity:1;stroke:#000000;stroke-width:5;stroke-linecap:round;stroke-linejoin:round;stroke-miterlimit:4;stroke-dasharray:none;stroke-dashoffset:0;stroke-opacity:1" />
      <ellipse
         transform="matrix(0.03137806,0.99950759,-0.99950759,0.03137806,0,0)"
         ry="17.773996"
         rx="18.662697"
         cy="-1993.6285"
         cx="-600.56793"
         id="path4278"
         style="fill:#ffffff;fill-opacity:1;stroke:#000000;stroke-width:5;stroke-linecap:round;stroke-linejoin:round;stroke-miterlimit:4;stroke-dasharray:none;stroke-dashoffset:0;stroke-opacity:1" />
      <ellipse
         ry="16.885296"
         rx="18.662697"
         cy="-670.82672"
         cx="2062.6724"
         id="path4280"
         style="fill:#ffffff;fill-opacity:1;stroke:#000000;stroke-width:5;stroke-linecap:round;stroke-linejoin:round;stroke-miterlimit:4;stroke-dasharray:none;stroke-dashoffset:0;stroke-opacity:1" />
      <ellipse
         transform="matrix(0.82083153,0.57117038,-0.57117038,0.82083153,0,0)"
         ry="15.996596"
         rx="17.773996"
         cy="-1787.8093"
         cx="1365.2288"
         id="path4282"
         style="fill:#ffffff;fill-opacity:1;stroke:#000000;stroke-width:5;stroke-linecap:round;stroke-linejoin:round;stroke-miterlimit:4;stroke-dasharray:none;stroke-dashoffset:0;stroke-opacity:1" />
      <ellipse
         transform="matrix(0.88755283,-0.46070595,0.46070595,0.88755283,0,0)"
         ry="21.328796"
         rx="15.996596"
         cy="501.57092"
         cx="2192.8135"
         id="path4284"
         style="fill:#ffffff;fill-opacity:1;stroke:#000000;stroke-width:5;stroke-linecap:round;stroke-linejoin:round;stroke-miterlimit:4;stroke-dasharray:none;stroke-dashoffset:0;stroke-opacity:1" />
      <ellipse
         transform="matrix(0.67714758,0.73584723,-0.73584723,0.67714758,0,0)"
         cx="1005.2147"
         cy="-1981.9628"
         rx="9.7756977"
         ry="17.773996"
         id="path4286"
         style="fill:#ffffff;fill-opacity:1;stroke:#000000;stroke-width:5;stroke-linecap:round;stroke-linejoin:round;stroke-miterlimit:4;stroke-dasharray:none;stroke-dashoffset:0;stroke-opacity:1" />
      <path
         sodipodi:open="true"
         d="m 2222.0411,-700.04216 a 13.330498,28.438395 0 0 1 12.1304,29.87699 13.330498,28.438395 0 0 1 -13.5829,26.88218 13.330498,28.438395 0 0 1 -13.057,-28.04317 13.330498,28.438395 0 0 1 12.6922,-28.7952"
         sodipodi:end="4.6645844"
         sodipodi:start="4.8010449"
         sodipodi:ry="28.438395"
         sodipodi:rx="13.330498"
         sodipodi:cy="-671.71545"
         sodipodi:cx="2220.8608"
         sodipodi:type="arc"
         id="path4290"
         style="fill:#ffffff;fill-opacity:1;stroke:#000000;stroke-width:5;stroke-linecap:round;stroke-linejoin:round;stroke-miterlimit:4;stroke-dasharray:none;stroke-dashoffset:0;stroke-opacity:1" />
      <path
         transform="matrix(0.09357499,0.99561223,-0.99561223,0.09357499,0,0)"
         d="m -331.50782,-2287.6692 a 10.664398,14.219197 0 0 1 9.70424,14.9386 10.664398,14.219197 0 0 1 -10.86639,13.441 10.664398,14.219197 0 0 1 -10.44555,-14.0216 10.664398,14.219197 0 0 1 10.15379,-14.3976"
         sodipodi:open="true"
         sodipodi:end="4.6645844"
         sodipodi:start="4.8010517"
         sodipodi:ry="14.219197"
         sodipodi:rx="10.664398"
         sodipodi:cy="-2273.5059"
         sodipodi:cx="-332.45212"
         sodipodi:type="arc"
         id="path4292"
         style="fill:#ffffff;fill-opacity:1;stroke:#000000;stroke-width:5;stroke-linecap:round;stroke-linejoin:round;stroke-miterlimit:4;stroke-dasharray:none;stroke-dashoffset:0;stroke-opacity:1" />
      <path
         transform="matrix(0.76265398,-0.6468067,0.6468067,0.76265398,0,0)"
         d="m 1933.9357,1001.8976 a 15.996596,11.553098 0 0 1 14.5564,12.1375 15.996596,11.553098 0 0 1 -16.2996,10.9209 15.996596,11.553098 0 0 1 -15.6683,-11.3926 15.996596,11.553098 0 0 1 15.2307,-11.698"
         sodipodi:open="true"
         sodipodi:end="4.6645844"
         sodipodi:start="4.8010517"
         sodipodi:ry="11.553098"
         sodipodi:rx="15.996596"
         sodipodi:cy="1013.4053"
         sodipodi:cx="1932.5193"
         sodipodi:type="arc"
         id="path4294"
         style="fill:#ffffff;fill-opacity:1;stroke:#000000;stroke-width:5;stroke-linecap:round;stroke-linejoin:round;stroke-miterlimit:4;stroke-dasharray:none;stroke-dashoffset:0;stroke-opacity:1" />
      <path
         d="m 2075.6418,-547.21371 a 15.996596,21.328796 0 0 1 14.5563,22.40784 15.996596,21.328796 0 0 1 -16.2995,20.16153 15.996596,21.328796 0 0 1 -15.6684,-21.03241 15.996596,21.328796 0 0 1 15.2307,-21.59637"
         sodipodi:open="true"
         sodipodi:end="4.6645844"
         sodipodi:start="4.8010517"
         sodipodi:ry="21.328796"
         sodipodi:rx="15.996596"
         sodipodi:cy="-525.96869"
         sodipodi:cx="2074.2253"
         sodipodi:type="arc"
         id="path4296"
         style="fill:#ffffff;fill-opacity:1;stroke:#000000;stroke-width:5;stroke-linecap:round;stroke-linejoin:round;stroke-miterlimit:4;stroke-dasharray:none;stroke-dashoffset:0;stroke-opacity:1" />
      <path
         transform="matrix(0.71243787,0.70173519,-0.70173519,0.71243787,0,0)"
         d="m 1041.9383,-1839.5575 a 13.330498,15.107897 0 0 1 12.1303,15.8723 13.330498,15.107897 0 0 1 -13.583,14.281 13.330498,15.107897 0 0 1 -13.0569,-14.8979 13.330498,15.107897 0 0 1 12.6922,-15.2974"
         sodipodi:open="true"
         sodipodi:end="4.6645844"
         sodipodi:start="4.8010517"
         sodipodi:ry="15.107897"
         sodipodi:rx="13.330498"
         sodipodi:cy="-1824.5089"
         sodipodi:cx="1040.7579"
         sodipodi:type="arc"
         id="path4298"
         style="fill:#ffffff;fill-opacity:1;stroke:#000000;stroke-width:5;stroke-linecap:round;stroke-linejoin:round;stroke-miterlimit:4;stroke-dasharray:none;stroke-dashoffset:0;stroke-opacity:1" />
    </g>
  </g>
</svg>
