<?xml version="1.0" encoding="UTF-8" standalone="no"?>
<!-- Created with Inkscape (http://www.inkscape.org/) -->

<svg
   xmlns:dc="http://purl.org/dc/elements/1.1/"
   xmlns:cc="http://creativecommons.org/ns#"
   xmlns:rdf="http://www.w3.org/1999/02/22-rdf-syntax-ns#"
   xmlns:svg="http://www.w3.org/2000/svg"
   xmlns="http://www.w3.org/2000/svg"
   xmlns:sodipodi="http://sodipodi.sourceforge.net/DTD/sodipodi-0.dtd"
   xmlns:inkscape="http://www.inkscape.org/namespaces/inkscape"
   width="214.8224mm"
   height="326.99017mm"
   viewBox="0 0 761.18174 1158.6266"
   id="svg4973"
   version="1.1"
   inkscape:version="0.91 r13725"
   sodipodi:docname="lula1.svg">
  <defs
     id="defs4975" />
  <sodipodi:namedview
     id="base"
     pagecolor="#ffffff"
     bordercolor="#666666"
     borderopacity="1.0"
     inkscape:pageopacity="0.0"
     inkscape:pageshadow="2"
     inkscape:zoom="0.35"
     inkscape:cx="537.01944"
     inkscape:cy="310.74184"
     inkscape:document-units="px"
     inkscape:current-layer="layer1"
     showgrid="false"
     fit-margin-top="0"
     fit-margin-left="0"
     fit-margin-right="0"
     fit-margin-bottom="0"
     inkscape:window-width="1366"
     inkscape:window-height="705"
     inkscape:window-x="-8"
     inkscape:window-y="-8"
     inkscape:window-maximized="1" />
  <metadata
     id="metadata4978">
    <rdf:RDF>
      <cc:Work
         rdf:about="">
        <dc:format>image/svg+xml</dc:format>
        <dc:type
           rdf:resource="http://purl.org/dc/dcmitype/StillImage" />
        <dc:title></dc:title>
      </cc:Work>
    </rdf:RDF>
  </metadata>
  <g
     inkscape:label="Camada 1"
     inkscape:groupmode="layer"
     id="layer1"
     transform="translate(820.59086,315.52256)">
    <g
       id="g4224"
       transform="translate(-887.16571,1053.8989)">
      <path
         sodipodi:nodetypes="csc"
         inkscape:connector-curvature="0"
         id="path4159"
         d="m 158.9789,-1341.6149 c -49.1177,11.4956 -88.8648,54.6006 -89.8749,103.4606 -1.0095,48.8297 24.4801,138.9561 70.4626,174.4881"
         style="fill:#800000;fill-rule:evenodd;stroke:#000000;stroke-width:5;stroke-linecap:butt;stroke-linejoin:miter;stroke-miterlimit:4;stroke-dasharray:none;stroke-opacity:1" />
      <path
         inkscape:connector-curvature="0"
         id="path4161"
         d="m 303.19675,-1325.9391 c 35.53192,-8.3604 70.0188,30.3067 83.60453,44.9374 13.58574,14.6308 36.57699,89.8749 16.72091,116.0013"
         style="fill:#782121;fill-rule:evenodd;stroke:#000000;stroke-width:5;stroke-linecap:butt;stroke-linejoin:miter;stroke-miterlimit:4;stroke-dasharray:none;stroke-opacity:1" />
      <path
         inkscape:connector-curvature="0"
         id="path4180"
         d="m 160.1196,-966.45863 c 4.1317,-26.85625 53.71246,-80.56877 53.71246,-80.56877 l 130.14951,6.7141 62.49242,35.6362 -12.39519,28.40561 -149.25876,51.64663 z"
         style="fill:#ff0000;fill-rule:evenodd;stroke:none;stroke-width:1px;stroke-linecap:butt;stroke-linejoin:miter;stroke-opacity:1" />
      <path
         sodipodi:nodetypes="cssssssssssc"
         inkscape:connector-curvature="0"
         id="path4155"
         d="m 293.79123,-993.61105 c 0,0 -73.52363,10.16383 -100.32543,14.63079 -25.0814,4.18023 -46.0161,12.15423 -53.2979,31.3517 -11.4956,30.30665 -14.6309,43.89239 -41.8023,40.75722 -13.0082,-1.50095 -26.1264,-19.85608 -9.4055,-58.52318 16.7209,-38.66708 61.6584,-80.46938 51.2078,-220.50698 -10.4506,-140.0376 20.9011,-168.2541 53.2979,-178.7047 32.39675,-10.4506 107.64083,14.6308 154.66838,85.6947 60.25952,91.0588 86.73971,226.7773 87.78477,260.2191 1.04506,33.4418 -7.3154,43.89236 -16.72091,42.84731 -9.40551,-1.04506 -33.44181,-25.08131 -58.52317,-24.0363 -25.08137,1.04505 -47.02756,2.09011 -66.88364,6.27034 z"
         style="fill:#c83737;fill-rule:evenodd;stroke:#000000;stroke-width:5;stroke-linecap:butt;stroke-linejoin:miter;stroke-miterlimit:4;stroke-dasharray:none;stroke-opacity:1" />
      <path
         sodipodi:nodetypes="cccsccsscssccscscscssccscscscsscsscc"
         inkscape:connector-curvature="0"
         id="path4163"
         d="m 160.024,-967.48463 c -2.0901,68.97374 51.20775,120.18152 86.73968,131.67714 -2.09011,250.81362 -16.72091,559.10536 -147.35298,561.19547 12.5407,54.34295 43.8924,94.05511 149.44309,22.99125 105.55073,-71.06386 134.81232,-368.90503 43.89239,-478.63599 110.77601,94.05511 260.21912,413.84247 77.3342,497.44701 95.10016,14.63079 197.72789,34.44203 168.25413,-104.50567 -14.6308,-68.97375 -26.22733,-75.274 -47.02755,-132.72221 -21.94619,-60.61329 -28.21653,-157.80357 -95.10017,-215.28169 71.06386,72.10892 86.37042,134.82161 136.90244,196.47067 52.25284,63.74846 131.69165,118.61441 165.11896,120.18152 31.3347,1.469 55.38801,-77.3342 60.61329,-89.87488 -59.56823,50.16273 -219.46191,-164.0739 -313.51702,-267.53452 63.74846,45.9825 125.40681,121.22658 169.29919,145.26289 43.89238,24.0363 150.48817,63.74846 172.43436,-34.48688 -64.79352,30.30665 -116.0013,-6.27034 -150.48817,-29.26158 -34.48687,-22.99125 -105.55073,-65.83858 -141.08266,-99.28039 73.15398,16.7209 180.79482,76.28914 206.92124,83.60453 26.12642,7.3154 76.28914,-1.04505 114.95624,-61.65834 -71.06386,15.67585 -129.58704,4.18022 -167.20908,-4.18023 -37.62204,-8.36045 -95.10016,-25.08136 -108.6859,-37.62204 -13.58574,-12.54068 -17.76596,-11.49563 -24.0363,-10.45057 68.97374,-26.12642 250.81361,-85.69465 283.21037,16.72091 43.89238,-55.38801 24.0363,-103.46062 -19.85608,-132.72221 -43.89238,-29.26159 -170.34425,-48.07261 -263.35429,52.25284 82.55948,-14.63079 150.48816,-45.9825 196.47066,-103.46062 45.9825,-57.47812 57.47812,-71.06388 49.11767,-112.86608 -53.2979,58.52313 -74.19903,68.9737 -130.63209,93.01001 -56.43307,24.0363 -88.82983,19.85607 -111.82107,19.85607 40.75721,-15.67585 63.74846,-12.54068 100.32544,-70.01878 36.57699,-57.4781 30.30665,-82.5595 57.47812,-98.2353 27.17148,-15.6759 54.34295,-31.3518 73.15397,-20.9012 -78.37925,-34.4869 -140.0376,-29.2616 -189.15527,8.3605 -49.11766,37.622 -88.82982,124.36172 -105.55073,187.06512 -16.7209,62.70341 -68.97374,96.14522 -95.10016,95.10017 32.39676,-31.35171 45.9825,-80.46937 37.62204,-147.353"
         style="fill:#ff0000;fill-rule:evenodd;stroke:#000000;stroke-width:5;stroke-linecap:butt;stroke-linejoin:miter;stroke-miterlimit:4;stroke-dasharray:none;stroke-opacity:1" />
      <path
         inkscape:connector-curvature="0"
         id="path4167"
         d="m 313.64731,-910.00651 c -22.99125,41.80226 -36.57698,41.80226 -45.98249,7.31539"
         style="fill:none;fill-rule:evenodd;stroke:#000000;stroke-width:5;stroke-linecap:butt;stroke-linejoin:miter;stroke-miterlimit:4;stroke-dasharray:none;stroke-opacity:1" />
      <ellipse
         transform="matrix(0,-1,1,0,0,0)"
         ry="10.450567"
         rx="14.630795"
         cy="239.44827"
         cx="950.76373"
         id="path4169"
         style="fill:#0000ff;fill-opacity:1;stroke:#000000;stroke-width:5;stroke-linecap:round;stroke-linejoin:round;stroke-miterlimit:4;stroke-dasharray:none;stroke-dashoffset:0;stroke-opacity:1" />
      <ellipse
         transform="matrix(0,-1,1,0,0,0)"
         ry="8.8829823"
         rx="13.585737"
         cy="296.4039"
         cx="950.76373"
         id="path4171"
         style="fill:#0000ff;fill-opacity:1;stroke:#000000;stroke-width:5;stroke-linecap:round;stroke-linejoin:round;stroke-miterlimit:4;stroke-dasharray:none;stroke-dashoffset:0;stroke-opacity:1" />
    </g>
  </g>
</svg>
