<?xml version="1.0" encoding="UTF-8" standalone="no"?>
<!-- Created with Inkscape (http://www.inkscape.org/) -->

<svg
   xmlns:dc="http://purl.org/dc/elements/1.1/"
   xmlns:cc="http://creativecommons.org/ns#"
   xmlns:rdf="http://www.w3.org/1999/02/22-rdf-syntax-ns#"
   xmlns:svg="http://www.w3.org/2000/svg"
   xmlns="http://www.w3.org/2000/svg"
   xmlns:sodipodi="http://sodipodi.sourceforge.net/DTD/sodipodi-0.dtd"
   xmlns:inkscape="http://www.inkscape.org/namespaces/inkscape"
   width="317.84097mm"
   height="281.03564mm"
   viewBox="0 0 1126.2082 995.79559"
   id="svg4329"
   version="1.1"
   inkscape:version="0.91 r13725"
   sodipodi:docname="lula2.svg">
  <defs
     id="defs4331" />
  <sodipodi:namedview
     id="base"
     pagecolor="#ffffff"
     bordercolor="#666666"
     borderopacity="1.0"
     inkscape:pageopacity="0.0"
     inkscape:pageshadow="2"
     inkscape:zoom="0.35"
     inkscape:cx="310.96122"
     inkscape:cy="349.32646"
     inkscape:document-units="px"
     inkscape:current-layer="layer1"
     showgrid="false"
     fit-margin-top="0"
     fit-margin-left="0"
     fit-margin-right="0"
     fit-margin-bottom="0"
     inkscape:window-width="1366"
     inkscape:window-height="705"
     inkscape:window-x="-8"
     inkscape:window-y="-8"
     inkscape:window-maximized="1" />
  <metadata
     id="metadata4334">
    <rdf:RDF>
      <cc:Work
         rdf:about="">
        <dc:format>image/svg+xml</dc:format>
        <dc:type
           rdf:resource="http://purl.org/dc/dcmitype/StillImage" />
        <dc:title></dc:title>
      </cc:Work>
    </rdf:RDF>
  </metadata>
  <g
     inkscape:label="Camada 1"
     inkscape:groupmode="layer"
     id="layer1"
     transform="translate(594.53265,114.10696)">
    <g
       id="g4300"
       transform="translate(-1717.4362,1190.0358)">
      <path
         inkscape:connector-curvature="0"
         id="path4272"
         d="m 1667.2009,-607.72906 124.4179,-135.08238 85.3152,-12.44179 30.2158,-8.887 -35.548,-88.86998 -156.4111,7.10959 -229.2846,126.19538 z"
         style="fill:#ff0000;fill-rule:evenodd;stroke:none;stroke-width:1px;stroke-linecap:butt;stroke-linejoin:miter;stroke-opacity:1" />
      <path
         style="fill:#800000;fill-rule:evenodd;stroke:#000000;stroke-width:5;stroke-linecap:butt;stroke-linejoin:miter;stroke-miterlimit:4;stroke-dasharray:none;stroke-opacity:1"
         d="m 1215.3076,-1276.3362 c -49.1177,11.4956 -88.8648,54.6006 -89.8749,103.4606 -1.0095,48.8297 24.4801,138.9561 70.4626,174.48814"
         id="path4236"
         inkscape:connector-curvature="0"
         sodipodi:nodetypes="csc" />
      <path
         style="fill:#782121;fill-rule:evenodd;stroke:#000000;stroke-width:5;stroke-linecap:butt;stroke-linejoin:miter;stroke-miterlimit:4;stroke-dasharray:none;stroke-opacity:1"
         d="m 1359.5255,-1260.6604 c 35.5319,-8.3604 70.0188,30.3067 83.6045,44.9374 13.5857,14.6308 36.577,89.8749 16.7209,116.0013"
         id="path4238"
         inkscape:connector-curvature="0" />
      <path
         style="fill:#ff0000;fill-rule:evenodd;stroke:none;stroke-width:1px;stroke-linecap:butt;stroke-linejoin:miter;stroke-opacity:1"
         d="m 1216.4483,-901.17989 c 4.1317,-26.85625 53.7125,-80.56877 53.7125,-80.56877 l 130.1495,6.7141 62.4924,35.6362 -12.3952,28.40561 -149.2588,51.64663 z"
         id="path4240"
         inkscape:connector-curvature="0" />
      <path
         inkscape:connector-curvature="0"
         id="path4264"
         d="m 1949.262,-389.10882 c 54.6011,23.66051 91.0019,20.02043 94.642,-10.92023 3.6401,-30.94067 -67.3415,-165.62357 -134.6829,-247.52533 -67.3415,-81.90177 -129.2228,-152.88329 -242.0652,-141.96306"
         style="fill:#ff0000;fill-rule:evenodd;stroke:#000000;stroke-width:5;stroke-linecap:butt;stroke-linejoin:miter;stroke-miterlimit:4;stroke-dasharray:none;stroke-opacity:1" />
      <path
         inkscape:connector-curvature="0"
         id="path4270"
         d="m 2216.8077,-840.47853 c 36.4008,67.34144 23.6605,116.4825 -54.6012,120.12258 -78.2616,3.64008 -314.8667,-10.92023 -351.2675,-29.12063"
         style="fill:#ff0000;fill-rule:evenodd;stroke:#000000;stroke-width:5;stroke-linecap:butt;stroke-linejoin:miter;stroke-miterlimit:4;stroke-dasharray:none;stroke-opacity:1" />
      <path
         sodipodi:nodetypes="cssc"
         inkscape:connector-curvature="0"
         id="path4262"
         d="m 1885.5606,-349.06796 c 41.8609,-3.64008 50.9611,-18.20039 67.3414,-40.04086 16.3804,-21.84047 29.1207,-89.18192 -27.3006,-187.46403 -56.4212,-98.28212 -203.8443,-189.28408 -265.7257,-212.94459"
         style="fill:#ff0000;fill-rule:evenodd;stroke:#000000;stroke-width:5;stroke-linecap:butt;stroke-linejoin:miter;stroke-miterlimit:4;stroke-dasharray:none;stroke-opacity:1" />
      <path
         inkscape:connector-curvature="0"
         id="path4268"
         d="m 2167.6667,-898.71979 c 56.4212,41.8609 60.0612,65.52141 38.2208,89.18192 -21.8405,23.66051 -123.7627,54.60118 -172.9037,52.78114 -49.1411,-1.82004 -209.3045,-20.02043 -243.8853,-12.74028"
         style="fill:#ff0000;fill-rule:evenodd;stroke:#000000;stroke-width:5;stroke-linecap:butt;stroke-linejoin:miter;stroke-miterlimit:4;stroke-dasharray:none;stroke-opacity:1" />
      <path
         inkscape:connector-curvature="0"
         id="path4260"
         d="m 1827.3193,-334.50764 c 54.6012,-1.82004 74.6216,-9.1002 72.8016,-61.88134 -1.82,-52.78113 -131.0428,-307.58662 -300.3065,-364.00783"
         style="fill:#ff0000;fill-rule:evenodd;stroke:#000000;stroke-width:5;stroke-linecap:butt;stroke-linejoin:miter;stroke-miterlimit:4;stroke-dasharray:none;stroke-opacity:1" />
      <path
         style="fill:#c83737;fill-rule:evenodd;stroke:#000000;stroke-width:5;stroke-linecap:butt;stroke-linejoin:miter;stroke-miterlimit:4;stroke-dasharray:none;stroke-opacity:1"
         d="m 1350.1199,-928.33231 c 0,0 -73.5236,10.16383 -100.3254,14.63079 -25.0814,4.18023 -46.0161,12.15423 -53.2979,31.3517 -11.4956,30.30665 -14.6309,43.89239 -41.8023,40.75722 -13.0082,-1.50095 -26.1264,-19.85608 -9.4055,-58.52318 16.7209,-38.66708 61.6584,-80.46938 51.2078,-220.50702 -10.4506,-140.0376 20.9011,-168.2541 53.2979,-178.7047 32.3968,-10.4506 107.6408,14.6308 154.6684,85.6947 60.2595,91.0588 86.7397,226.77734 87.7848,260.21914 1.045,33.4418 -7.3154,43.89236 -16.721,42.84731 -9.4055,-1.04506 -33.4418,-25.08131 -58.5231,-24.0363 -25.0814,1.04505 -47.0276,2.09011 -66.8837,6.27034 z"
         id="path4242"
         inkscape:connector-curvature="0"
         sodipodi:nodetypes="cssssssssssc" />
      <path
         sodipodi:nodetypes="cssc"
         inkscape:connector-curvature="0"
         id="path4266"
         d="m 2089.405,-976.98147 c 65.5214,38.22082 87.3619,52.78113 74.6216,96.46207 -12.7403,43.68094 -74.6216,63.70137 -147.4232,72.80157 -72.8016,9.1002 -152.0013,1.73476 -208.4225,9.01492"
         style="fill:#ff0000;fill-rule:evenodd;stroke:#000000;stroke-width:5;stroke-linecap:butt;stroke-linejoin:miter;stroke-miterlimit:4;stroke-dasharray:none;stroke-opacity:1" />
      <path
         style="fill:#ff0000;fill-rule:evenodd;stroke:#000000;stroke-width:5;stroke-linecap:butt;stroke-linejoin:miter;stroke-miterlimit:4;stroke-dasharray:none;stroke-opacity:1"
         d="m 1455.6707,-922.06197 c 8.3604,66.88363 5.6949,121.46141 -26.7019,152.81312 172.6657,-38.46898 212.7065,-65.76957 301.8885,-96.71023 89.1819,-30.94067 239.022,-45.4157 287.6514,-69.03357 39.7424,-12.95347 76.3564,-29.24855 14.4751,-82.02965 63.7013,34.58071 105.5622,92.82196 80.0817,120.12255 -25.4806,27.30059 -91.002,32.76071 -194.7442,52.78114 -103.7422,20.02043 -160.1635,34.58074 -180.1839,30.94066 -20.0204,-3.64008 -32.7607,-25.48055 -32.7607,-25.48055 l -156.7211,87.37369 0.1977,54.58937 c 80.0818,21.84047 189.2841,83.7218 254.8055,183.82396 65.5214,100.10215 41.8609,158.3434 27.3006,178.36384 -14.5603,20.02043 -30.9407,23.6605 -92.822,23.6605 47.321,-27.30058 16.3804,-87.36188 -21.8405,-136.50293 -38.2208,-49.14106 -125.5827,-132.86286 -192.9241,-165.62357 -67.3415,-32.7607 -182.0039,-109.20235 -234.8407,-137.53468 -35.5319,-11.49562 -74.2695,-82.72383 -72.1794,-151.69757 9.0339,-29.06587 42.4055,-62.61626 102.1291,-65.54298 132.4062,-6.48848 137.1889,45.6869 137.1889,45.6869"
         id="path4244"
         inkscape:connector-curvature="0"
         sodipodi:nodetypes="cccccssscccsscssccsc" />
      <path
         style="fill:none;fill-rule:evenodd;stroke:#000000;stroke-width:5;stroke-linecap:butt;stroke-linejoin:miter;stroke-miterlimit:4;stroke-dasharray:none;stroke-opacity:1"
         d="m 1369.976,-844.72777 c -22.9912,41.80226 -36.577,41.80226 -45.9825,7.31539"
         id="path4246"
         inkscape:connector-curvature="0" />
      <ellipse
         style="fill:#0000ff;fill-opacity:1;stroke:#000000;stroke-width:5;stroke-linecap:round;stroke-linejoin:round;stroke-miterlimit:4;stroke-dasharray:none;stroke-dashoffset:0;stroke-opacity:1"
         id="ellipse4248"
         cx="885.48499"
         cy="1295.777"
         rx="14.630795"
         ry="10.450567"
         transform="matrix(0,-1,1,0,0,0)" />
      <ellipse
         style="fill:#0000ff;fill-opacity:1;stroke:#000000;stroke-width:5;stroke-linecap:round;stroke-linejoin:round;stroke-miterlimit:4;stroke-dasharray:none;stroke-dashoffset:0;stroke-opacity:1"
         id="ellipse4250"
         cx="885.48499"
         cy="1352.7325"
         rx="13.585737"
         ry="8.8829823"
         transform="matrix(0,-1,1,0,0,0)" />
      <path
         inkscape:connector-curvature="0"
         id="path4274"
         d="m 1564.1117,-703.70864 -40.8802,10.66439 -12.4418,-71.09598 195.514,-81.76039 0,24.8836 -119.0858,65.76379 z"
         style="fill:#ff0000;fill-rule:evenodd;stroke:none;stroke-width:1px;stroke-linecap:butt;stroke-linejoin:miter;stroke-opacity:1" />
      <ellipse
         ry="15.107897"
         rx="13.330498"
         cy="-686.82336"
         cx="1920.4803"
         id="path4276"
         style="fill:#ffffff;fill-opacity:1;stroke:#000000;stroke-width:5;stroke-linecap:round;stroke-linejoin:round;stroke-miterlimit:4;stroke-dasharray:none;stroke-dashoffset:0;stroke-opacity:1" />
      <ellipse
         transform="matrix(0.03137806,0.99950759,-0.99950759,0.03137806,0,0)"
         ry="17.773996"
         rx="18.662697"
         cy="-1993.6285"
         cx="-600.56793"
         id="path4278"
         style="fill:#ffffff;fill-opacity:1;stroke:#000000;stroke-width:5;stroke-linecap:round;stroke-linejoin:round;stroke-miterlimit:4;stroke-dasharray:none;stroke-dashoffset:0;stroke-opacity:1" />
      <ellipse
         ry="16.885296"
         rx="18.662697"
         cy="-670.82672"
         cx="2062.6724"
         id="path4280"
         style="fill:#ffffff;fill-opacity:1;stroke:#000000;stroke-width:5;stroke-linecap:round;stroke-linejoin:round;stroke-miterlimit:4;stroke-dasharray:none;stroke-dashoffset:0;stroke-opacity:1" />
      <ellipse
         transform="matrix(0.82083153,0.57117038,-0.57117038,0.82083153,0,0)"
         ry="15.996596"
         rx="17.773996"
         cy="-1787.8093"
         cx="1365.2288"
         id="path4282"
         style="fill:#ffffff;fill-opacity:1;stroke:#000000;stroke-width:5;stroke-linecap:round;stroke-linejoin:round;stroke-miterlimit:4;stroke-dasharray:none;stroke-dashoffset:0;stroke-opacity:1" />
      <ellipse
         transform="matrix(0.88755283,-0.46070595,0.46070595,0.88755283,0,0)"
         ry="21.328796"
         rx="15.996596"
         cy="501.57092"
         cx="2192.8135"
         id="path4284"
         style="fill:#ffffff;fill-opacity:1;stroke:#000000;stroke-width:5;stroke-linecap:round;stroke-linejoin:round;stroke-miterlimit:4;stroke-dasharray:none;stroke-dashoffset:0;stroke-opacity:1" />
      <ellipse
         transform="matrix(0.67714758,0.73584723,-0.73584723,0.67714758,0,0)"
         cx="1005.2147"
         cy="-1981.9628"
         rx="9.7756977"
         ry="17.773996"
         id="path4286"
         style="fill:#ffffff;fill-opacity:1;stroke:#000000;stroke-width:5;stroke-linecap:round;stroke-linejoin:round;stroke-miterlimit:4;stroke-dasharray:none;stroke-dashoffset:0;stroke-opacity:1" />
      <path
         sodipodi:open="true"
         d="m 2222.0411,-700.04216 a 13.330498,28.438395 0 0 1 12.1304,29.87699 13.330498,28.438395 0 0 1 -13.5829,26.88218 13.330498,28.438395 0 0 1 -13.057,-28.04317 13.330498,28.438395 0 0 1 12.6922,-28.7952"
         sodipodi:end="4.6645844"
         sodipodi:start="4.8010449"
         sodipodi:ry="28.438395"
         sodipodi:rx="13.330498"
         sodipodi:cy="-671.71545"
         sodipodi:cx="2220.8608"
         sodipodi:type="arc"
         id="path4290"
         style="fill:#ffffff;fill-opacity:1;stroke:#000000;stroke-width:5;stroke-linecap:round;stroke-linejoin:round;stroke-miterlimit:4;stroke-dasharray:none;stroke-dashoffset:0;stroke-opacity:1" />
      <path
         transform="matrix(0.09357499,0.99561223,-0.99561223,0.09357499,0,0)"
         d="m -331.50782,-2287.6692 a 10.664398,14.219197 0 0 1 9.70424,14.9386 10.664398,14.219197 0 0 1 -10.86639,13.441 10.664398,14.219197 0 0 1 -10.44555,-14.0216 10.664398,14.219197 0 0 1 10.15379,-14.3976"
         sodipodi:open="true"
         sodipodi:end="4.6645844"
         sodipodi:start="4.8010517"
         sodipodi:ry="14.219197"
         sodipodi:rx="10.664398"
         sodipodi:cy="-2273.5059"
         sodipodi:cx="-332.45212"
         sodipodi:type="arc"
         id="path4292"
         style="fill:#ffffff;fill-opacity:1;stroke:#000000;stroke-width:5;stroke-linecap:round;stroke-linejoin:round;stroke-miterlimit:4;stroke-dasharray:none;stroke-dashoffset:0;stroke-opacity:1" />
      <path
         transform="matrix(0.76265398,-0.6468067,0.6468067,0.76265398,0,0)"
         d="m 1933.9357,1001.8976 a 15.996596,11.553098 0 0 1 14.5564,12.1375 15.996596,11.553098 0 0 1 -16.2996,10.9209 15.996596,11.553098 0 0 1 -15.6683,-11.3926 15.996596,11.553098 0 0 1 15.2307,-11.698"
         sodipodi:open="true"
         sodipodi:end="4.6645844"
         sodipodi:start="4.8010517"
         sodipodi:ry="11.553098"
         sodipodi:rx="15.996596"
         sodipodi:cy="1013.4053"
         sodipodi:cx="1932.5193"
         sodipodi:type="arc"
         id="path4294"
         style="fill:#ffffff;fill-opacity:1;stroke:#000000;stroke-width:5;stroke-linecap:round;stroke-linejoin:round;stroke-miterlimit:4;stroke-dasharray:none;stroke-dashoffset:0;stroke-opacity:1" />
      <path
         d="m 2075.6418,-547.21371 a 15.996596,21.328796 0 0 1 14.5563,22.40784 15.996596,21.328796 0 0 1 -16.2995,20.16153 15.996596,21.328796 0 0 1 -15.6684,-21.03241 15.996596,21.328796 0 0 1 15.2307,-21.59637"
         sodipodi:open="true"
         sodipodi:end="4.6645844"
         sodipodi:start="4.8010517"
         sodipodi:ry="21.328796"
         sodipodi:rx="15.996596"
         sodipodi:cy="-525.96869"
         sodipodi:cx="2074.2253"
         sodipodi:type="arc"
         id="path4296"
         style="fill:#ffffff;fill-opacity:1;stroke:#000000;stroke-width:5;stroke-linecap:round;stroke-linejoin:round;stroke-miterlimit:4;stroke-dasharray:none;stroke-dashoffset:0;stroke-opacity:1" />
      <path
         transform="matrix(0.71243787,0.70173519,-0.70173519,0.71243787,0,0)"
         d="m 1041.9383,-1839.5575 a 13.330498,15.107897 0 0 1 12.1303,15.8723 13.330498,15.107897 0 0 1 -13.583,14.281 13.330498,15.107897 0 0 1 -13.0569,-14.8979 13.330498,15.107897 0 0 1 12.6922,-15.2974"
         sodipodi:open="true"
         sodipodi:end="4.6645844"
         sodipodi:start="4.8010517"
         sodipodi:ry="15.107897"
         sodipodi:rx="13.330498"
         sodipodi:cy="-1824.5089"
         sodipodi:cx="1040.7579"
         sodipodi:type="arc"
         id="path4298"
         style="fill:#ffffff;fill-opacity:1;stroke:#000000;stroke-width:5;stroke-linecap:round;stroke-linejoin:round;stroke-miterlimit:4;stroke-dasharray:none;stroke-dashoffset:0;stroke-opacity:1" />
    </g>
  </g>
</svg>
