<?xml version="1.0" encoding="UTF-8" standalone="no"?>
<!-- Created with Inkscape (http://www.inkscape.org/) -->

<svg
   xmlns:dc="http://purl.org/dc/elements/1.1/"
   xmlns:cc="http://creativecommons.org/ns#"
   xmlns:rdf="http://www.w3.org/1999/02/22-rdf-syntax-ns#"
   xmlns:svg="http://www.w3.org/2000/svg"
   xmlns="http://www.w3.org/2000/svg"
   xmlns:sodipodi="http://sodipodi.sourceforge.net/DTD/sodipodi-0.dtd"
   xmlns:inkscape="http://www.inkscape.org/namespaces/inkscape"
   width="572.09509mm"
   height="245.03294mm"
   viewBox="0 0 2027.1086 868.22696"
   id="svg2"
   version="1.1"
   inkscape:version="0.91 r13725"
   sodipodi:docname="tubarao.svg">
  <defs
     id="defs4">
    <clipPath
       clipPathUnits="userSpaceOnUse"
       id="clipPath4151">
      <rect
         style="fill:#000000;fill-opacity:1;stroke:#000000;stroke-width:1;stroke-miterlimit:4;stroke-dasharray:none;stroke-dashoffset:0;stroke-opacity:1"
         id="rect4153"
         width="2116.3086"
         height="976.75781"
         x="-1163.6683"
         y="747.87903"
         transform="matrix(-0.5,0.8660254,-0.8660254,-0.5,0,0)" />
    </clipPath>
  </defs>
  <sodipodi:namedview
     id="base"
     pagecolor="#ffffff"
     bordercolor="#666666"
     borderopacity="1.0"
     inkscape:pageopacity="0.0"
     inkscape:pageshadow="2"
     inkscape:zoom="0.37309676"
     inkscape:cx="1005.1012"
     inkscape:cy="434.11349"
     inkscape:document-units="px"
     inkscape:current-layer="layer1"
     showgrid="false"
     inkscape:window-width="1366"
     inkscape:window-height="705"
     inkscape:window-x="-8"
     inkscape:window-y="-8"
     inkscape:window-maximized="1"
     fit-margin-top="0"
     fit-margin-left="0"
     fit-margin-right="0"
     fit-margin-bottom="0" />
  <metadata
     id="metadata7">
    <rdf:RDF>
      <cc:Work
         rdf:about="">
        <dc:format>image/svg+xml</dc:format>
        <dc:type
           rdf:resource="http://purl.org/dc/dcmitype/StillImage" />
        <dc:title></dc:title>
      </cc:Work>
    </rdf:RDF>
  </metadata>
  <g
     inkscape:label="Camada 1"
     inkscape:groupmode="layer"
     id="layer1"
     transform="translate(1133.5307,-797.4148)">
    <g
       id="g4212">
      <path
         id="path4200"
         d="m 498.72461,1267.0156 -192.73047,27.4024 -20.0957,127.8789 15.99609,11.4238 c 0.0723,-0.1947 0.55859,-1.5078 0.55859,-1.5078 0,0 174.853,-36.1767 217.0586,-33.1621 42.2056,3.0147 69.33613,27.1316 126.61523,48.2344 57.279,21.1028 39.19109,9.0456 69.33789,24.1191 30.1469,15.0734 159.7793,51.248 159.7793,51.248 0,0 -138.67597,-96.4683 -208.01367,-132.6445 -69.3378,-36.1762 -81.39638,-60.2948 -93.45508,-72.3535 -12.0587,-12.0588 -72.35156,-48.2344 -72.35156,-48.2344 0,0 3.53466,-0.011 8.52929,-0.2851 l -11.22851,-2.1192 z"
         style="fill:#ffffff;fill-rule:evenodd;stroke:none;stroke-width:5;stroke-linecap:butt;stroke-linejoin:miter;stroke-miterlimit:4;stroke-dasharray:none;stroke-opacity:1"
         inkscape:connector-curvature="0" />
      <path
         sodipodi:nodetypes="csssscccsccsscscccssccscsccscsscccccssssssccssc"
         inkscape:connector-curvature="0"
         id="path4155"
         d="m -63.308594,802.14258 60.292969,81.39648 c 60.293694,81.39649 81.397279,138.67624 96.470703,183.89644 15.073422,45.2203 -9.043691,36.1757 -30.146484,42.2051 -21.102793,6.0294 -57.2796579,12.0598 -108.529297,3.0156 -51.249639,-9.044 -325.585937,15.0723 -325.585937,15.0723 l -15.07227,-48.2344 -24.11914,51.25 c 0,0 -81.39481,-3.0156 -138.67383,-3.0156 -57.27899,0 -6.02929,-3.0137 -6.02929,-3.0137 l -96.47071,0 c 0,0 -27.13244,-33.1619 -57.27929,-51.25 -30.14684,-18.0881 -168.82255,-138.67436 -226.10156,-171.83589 -57.279,-33.16153 -195.95317,-21.10352 -195.95317,-21.10352 0,0 51.2497,36.17672 81.3965,39.19141 30.1469,3.01468 93.4551,48.23437 93.4551,48.23437 l -27.13281,36.17583 57.2793,-12.05864 c 0,0 63.3073,63.30934 171.83593,165.80864 108.52865,102.4992 114.55874,220.0703 102.5,295.4375 -12.05874,75.3671 -93.45507,162.7929 -93.45507,162.7929 0,0 12.05932,0 33.16211,-9.0429 21.10279,-9.0441 93.45471,-84.4116 123.60156,-132.6465 30.14685,-48.235 75.36719,-159.7774 75.36719,-159.7774 0,0 364.77647,69.3376 437.128902,93.4551 72.3524333,24.1175 244.189458,27.1309 244.189458,27.1309 l 0.18164,-0.4825 c 0.97973,6.6611 4.92801,12.8196 5.82449,20.5892 9.04405,78.3819 51.27316,202.9812 51.27316,202.9812 0,0 12.05947,-9.0456 21.10352,-36.1778 9.04406,-27.1322 -5.10607,-20.6035 12.98204,-71.8531 18.0881,-51.2497 41.25651,-118.0707 41.25651,-118.0707 l 30.1716,-69.3379 168.82227,-87.4258 7.71094,0.502 c -6.39933,-3.9282 -10.72461,-6.5313 -10.72461,-6.5313 0,0 27.13071,10e-5 39.18945,-6.0293 12.05874,-6.0293 108.52966,-30.1473 159.7793,-39.1914 51.24964,-9.044 129.63188,-48.2341 126.61719,-66.3222 -3.01468,-18.0881 -15.07371,-9.0439 -57.2793,-18.0879 -42.20558,-9.0441 -256.24956,24.1161 -292.42578,27.1308 -36.17621,3.0147 -96.46948,-24.1162 -117.57227,-27.1308 -15.69248,-2.2418 -56.31361,0.5139 -76.15039,2.0761 l 0.7832,-2.0761 c 0,0 -9.04282,-9.0445 -21.10156,-45.2207 C 247.20493,1058.3922 201.98322,1007.1425 135.66016,925.74609 69.337089,844.3496 -63.308594,802.14258 -63.308594,802.14258 Z"
         style="fill:#b3b3b3;fill-rule:evenodd;stroke:none;stroke-width:5;stroke-linecap:butt;stroke-linejoin:miter;stroke-miterlimit:4;stroke-dasharray:none;stroke-opacity:1" />
      <g
         style="fill:none"
         id="g4171">
        <path
           id="path4160"
           d="m -59.3086,802.14258 60.293,81.39648 c 60.2937,81.39649 81.3973,138.67624 96.4707,183.89644 15.0734,45.2203 -9.0437,36.1757 -30.1465,42.2051 -21.1028,6.0294 -57.2797,12.0598 -108.5293,3.0156 -51.2496,-9.0441 -325.5859,15.0723 -325.5859,15.0723 l -15.0723,-48.2344 -24.1192,51.25 c 0,0 -81.3948,-3.0156 -138.6738,-3.0156 -57.279,0 -6.0293,-3.0137 -6.0293,-3.0137 l -96.4707,0 c 0,0 -27.1324,-33.1619 -57.2793,-51.25 -30.1468,-18.0881 -168.8225,-138.67436 -226.1015,-171.83589 -57.279,-33.16153 -195.9532,-21.10352 -195.9532,-21.10352 0,0 51.2497,36.17672 81.3965,39.19141 30.1469,3.01468 93.4551,48.23437 93.4551,48.23437 l -27.1328,36.17583 57.2793,-12.05864 c 0,0 63.3073,63.30934 171.8359,165.80864 108.5287,102.4992 114.5588,220.0703 102.5,295.4375 -12.0587,75.3671 -93.4551,162.7929 -93.4551,162.7929 0,0 12.0594,0 33.1622,-9.0429 21.1027,-9.0441 93.4547,-84.4116 123.6015,-132.6465 30.1469,-48.235 75.3672,-159.7774 75.3672,-159.7774 0,0 364.7765,69.3376 437.1289,93.4551 72.3525,24.1175 244.1895,27.1309 244.1895,27.1309 l 0.1816,-0.4825 c 0.9797,6.6611 1.9375,13.8164 2.834,21.586 9.044,78.3819 54.2637,201.9844 54.2637,201.9844 0,0 5.86121,-16.2768 14.90531,-43.409 9.044,-27.1322 3.52007,-32.4653 21.60817,-83.7149 18.0882,-51.2497 35.83802,-98.9777 35.83802,-98.9777 0,0 174.853,-36.1767 217.0586,-33.1621 42.2056,3.0147 69.3362,27.1316 126.6153,48.2344 57.279,21.1028 39.191,9.0456 69.3378,24.1191 30.1469,15.0734 159.7793,51.248 159.7793,51.248 0,0 -138.6759,-96.4683 -208.0136,-132.6445 -69.3378,-36.1762 -81.3964,-60.2948 -93.4551,-72.3535 -12.0587,-12.0588 -72.3516,-48.2344 -72.3516,-48.2344 0,0 27.1307,10e-5 39.1895,-6.0293 12.0587,-6.0293 108.5296,-30.1473 159.7793,-39.1914 51.2496,-9.044 129.6319,-48.2341 126.6172,-66.3222 -3.0147,-18.0881 -15.0737,-9.0439 -57.2793,-18.0879 -42.2056,-9.0441 -256.2496,24.1161 -292.4258,27.1308 -36.1762,3.0147 -96.4695,-24.1162 -117.5723,-27.1308 -15.6925,-2.2418 -56.3136,0.5139 -76.1504,2.0761 l 0.7832,-2.0761 c 0,0 -9.0428,-9.0445 -21.1015,-45.2207 C 251.2049,1058.3922 205.9832,1007.1425 139.6602,925.74609 73.3371,844.3496 -59.3086,802.14258 -59.3086,802.14258 Z"
           style="fill:none;fill-rule:evenodd;stroke:#000000;stroke-width:5;stroke-linecap:butt;stroke-linejoin:miter;stroke-miterlimit:4;stroke-dasharray:none;stroke-opacity:1"
           inkscape:connector-curvature="0"
           sodipodi:nodetypes="csssscccsccsscscccssccscsccscsscssscsscssssssccssc" />
        <path
           style="fill:none;fill-rule:evenodd;stroke:#000000;stroke-width:5;stroke-linecap:butt;stroke-linejoin:miter;stroke-miterlimit:4;stroke-dasharray:none;stroke-opacity:1"
           d="m 170.45027,1435.6171 c 0,0 -10.90955,-50.4217 -11.36336,-74.3783 -1.04799,-55.3247 -3.09909,-61.982 21.69368,-84.7087"
           id="path4167"
           inkscape:connector-curvature="0"
           sodipodi:nodetypes="csc" />
        <path
           style="fill:none;fill-rule:evenodd;stroke:#000000;stroke-width:5;stroke-linecap:butt;stroke-linejoin:miter;stroke-miterlimit:4;stroke-dasharray:none;stroke-opacity:1"
           d="M 302.67836,1431.4849 349.1648,1307.5211"
           id="path4169"
           inkscape:connector-curvature="0"
           sodipodi:nodetypes="cc" />
      </g>
      <path
         inkscape:connector-curvature="0"
         id="path4178"
         d="m 259.29102,1191.8215 -6.19819,60.9489"
         style="fill:none;fill-rule:evenodd;stroke:#000000;stroke-width:8;stroke-linecap:round;stroke-linejoin:miter;stroke-miterlimit:4;stroke-dasharray:none;stroke-opacity:1" />
      <path
         inkscape:connector-curvature="0"
         id="path4180"
         d="m 293.38107,1261.0347 c 0,-4.1322 0,-13.4295 5.16516,-29.958 5.16516,-16.5285 9.29729,-27.8918 9.29729,-27.8918"
         style="fill:none;fill-rule:evenodd;stroke:#000000;stroke-width:8;stroke-linecap:round;stroke-linejoin:miter;stroke-miterlimit:4;stroke-dasharray:none;stroke-opacity:1" />
      <path
         inkscape:connector-curvature="0"
         id="path4182"
         d="m 338.83448,1278.5962 c 0,0 -4.13213,-17.5615 1.03303,-39.2552 5.16516,-21.6937 10.33032,-33.057 10.33032,-33.057"
         style="fill:none;fill-rule:evenodd;stroke:#000000;stroke-width:8;stroke-linecap:round;stroke-linejoin:miter;stroke-miterlimit:4;stroke-dasharray:none;stroke-opacity:1" />
      <path
         inkscape:connector-curvature="0"
         id="path4184"
         d="m 373.95756,1292.0256 c 0,0 -2.06606,-20.6606 -1.03303,-34.09 1.03303,-13.4295 6.19819,-26.8589 6.19819,-26.8589"
         style="fill:none;fill-rule:evenodd;stroke:#000000;stroke-width:8;stroke-linecap:round;stroke-linejoin:miter;stroke-miterlimit:4;stroke-dasharray:none;stroke-opacity:1" />
      <path
         inkscape:connector-curvature="0"
         id="path4186"
         d="m 414.24581,1298.2238 c 0,0 -7.23122,-19.6276 -7.23122,-28.9249 0,-9.2973 4.13212,-30.9909 4.13212,-30.9909"
         style="fill:none;fill-rule:evenodd;stroke:#000000;stroke-width:8;stroke-linecap:round;stroke-linejoin:miter;stroke-miterlimit:4;stroke-dasharray:none;stroke-opacity:1" />
      <path
         inkscape:connector-curvature="0"
         id="path4188"
         d="m 447.30283,1311.6532 c 0,0 -7.23122,-20.6606 -7.23122,-38.2222 0,-17.5615 3.09909,-29.9579 3.09909,-29.9579"
         style="fill:none;fill-rule:evenodd;stroke:#000000;stroke-width:8;stroke-linecap:round;stroke-linejoin:miter;stroke-miterlimit:4;stroke-dasharray:none;stroke-opacity:1" />
      <circle
         r="19.627607"
         cy="1214.5482"
         cx="511.3508"
         id="path4192"
         style="fill:#000000;fill-opacity:1;stroke:none;stroke-width:8;stroke-linecap:round;stroke-miterlimit:4;stroke-dasharray:none;stroke-dashoffset:0;stroke-opacity:1" />
      <path
         sodipodi:nodetypes="ccccccscccccccccccccccccccccccsscc"
         inkscape:connector-curvature="0"
         id="path4194"
         d="m 816.10479,1213.171 -17.08593,-16.0809 -2.01012,31.1568 -24.12132,-26.1315 -14.07077,41.2073 -9.0455,-10.0506 c 0,0 2.01011,14.0708 -2.01011,10.0506 -4.02022,-4.0202 -21.10616,-23.1163 -21.10616,-23.1163 l -7.03538,32.1618 -10.05055,-1.0051 -5.02528,7.0354 -15.07583,-29.1466 -11.0556,39.1972 -13.06572,-12.0607 -4.02022,15.0758 -13.06572,-31.1567 -16.08088,40.2022 -15.07583,-16.0809 -6.03033,18.091 -11.05561,-30.3232 -13.06571,29.3182 -8.04045,-10.0506 -2.01011,10.0506 -12.06066,-22.1112 -12.06066,20.1011 -8.83929,-4.4067 -3.01517,10.437 -6.82052,-9.2171 -27.85033,-7.1392 c 15.38669,3.9824 66.44956,-19.1547 125.21353,-31.4499 0,0 38.7998,-9.0162 86.37214,-17.7185 25.16985,-4.6043 62.58522,-23.8643 70.49909,-28.42 23.56906,-13.5677 34.95707,-18.7771 34.95707,-18.7771 z"
         style="fill:#ffffff;fill-rule:evenodd;stroke:#000000;stroke-width:5;stroke-linecap:round;stroke-linejoin:miter;stroke-miterlimit:4;stroke-dasharray:none;stroke-opacity:1" />
      <path
         sodipodi:nodetypes="cccccccccccccccccccccccccccccccccccccccccssc"
         inkscape:connector-curvature="0"
         id="path4196"
         d="m 876.4081,1523.7331 15.07583,-23.1163 -24.12132,15.0758 2.01011,-24.1213 -15.07583,2.0101 0,-14.0708 -25.12638,11.0557 4.02022,-19.0961 -9.0455,0 -5.02527,-12.0607 -28.14155,10.0506 0,-22.1112 -12.06066,-1.0051 5.02528,-12.0606 -24.12133,13.0657 10.05056,-27.1365 -12.06067,5.0253 4.02022,-12.0607 -23.11626,19.0961 9.04549,-34.1719 -20.1011,7.0354 7.03538,-18.091 -34.17187,23.1162 10.05055,-37.187 -12.06066,6.0303 1.00505,-17.0859 -35.17693,26.1314 14.07078,-42.2123 -32.16177,29.1466 10.05055,-37.187 -11.0556,6.0303 -2.01012,-17.0859 -37.18704,22.1112 17.08594,-38.1921 -19.09605,1.005 -3.01516,-14.0707 -37.18704,11.0556 6.03033,-20.1011 -11.05561,0 0,-7.0354 -21.10616,13.0657 c 0,0 26.13144,14.0708 36.69434,23.8876 15.57363,14.4735 32.43745,39.4411 53.58742,51.524 47.96178,27.4004 248.42183,153.741 248.42183,153.741 z"
         style="fill:#ffffff;fill-rule:evenodd;stroke:#000000;stroke-width:5;stroke-linecap:butt;stroke-linejoin:miter;stroke-miterlimit:4;stroke-dasharray:none;stroke-opacity:1" />
    </g>
  </g>
</svg>
